<svg
   width="10383.9"
   height="5000"
   viewBox="0 0 10383.9 5000"
   fill="none"
   version="1.1"
   id="svg12"
   sodipodi:docname="dept.svg"
   inkscape:version="1.2.2 (b0a8486541, 2022-12-01)"
   xmlns:inkscape="http://www.inkscape.org/namespaces/inkscape"
   xmlns:sodipodi="http://sodipodi.sourceforge.net/DTD/sodipodi-0.dtd"
   xmlns="http://www.w3.org/2000/svg"
   xmlns:svg="http://www.w3.org/2000/svg">
  <path
     d="m 2574.46,2502.863 c 0,-753.125 -411.14,-1333.34 -1456.3,-1333.34 H 0 v 2666.68 h 1118.16 c 1045.16,0 1456.3,-580.21 1456.3,-1333.34 z m -760.81,0 c 0,526.42 -295.87,722.39 -707.01,722.39 H 726.229 V 1780.478 h 380.411 c 411.14,0 707.01,195.966 707.01,722.385 z"
     fill="#1E1D28"
     id="path2" />
  <path
     d="m 2748.38,3836.203 h 2113.36 v -607.11 H 3474.61 v -457.25 h 1218.06 v -576.38 H 3474.61 V 1776.635 H 4827.16 V 1169.523 H 2748.38 Z"
     fill="#1E1D28"
     id="path4" />
  <path
     d="m 7321.88,2095.563 c 0,-672.436 -430.36,-926.04 -1098.95,-926.04 H 5066.34 v 2666.68 h 726.23 v -814.6 h 430.36 c 668.59,0 1098.95,-253.61 1098.95,-926.04 z m -753.12,0 c 0,261.29 -122.96,368.88 -418.84,368.88 h -357.35 v -737.76 h 357.35 c 295.88,0 418.84,107.589 418.84,368.88 z"
     fill="#1E1D28"
     id="path6" />
  <path
     d="m 7401.13,1792.005 h 841.5 v 2044.198 h 726.23 V 1792.005 h 841.5 V 1169.523 H 7401.13 Z"
     fill="#1E1D28"
     id="path8" />
  <path
     d="m 9508.6,3462.853 c 0,241.32 195.35,436.67 436.7,436.67 241.3,0 438.6,-195.35 438.6,-436.67 0,-241.32 -197.3,-438.59 -438.6,-438.59 -241.35,0 -436.7,197.27 -436.7,438.59 z m 84.27,0 c 0,-199.18 157.04,-361.98 352.43,-361.98 195.3,0 354.3,162.8 354.3,361.98 0,199.18 -159,360.06 -354.3,360.06 -195.39,0 -352.43,-160.88 -352.43,-360.06 z m 147.47,216.42 h 137.86 v -149.39 h 78.6 l 82.3,149.39 h 149.4 l -99.6,-176.2 c 46,-19.15 80.4,-70.86 80.4,-128.32 0,-101.51 -65.1,-149.39 -176.2,-149.39 h -252.76 z m 289.16,-302.61 c 0,36.39 -22.9,51.72 -67,51.72 h -84.3 v -95.77 h 84.3 c 44.1,0 67,11.5 67,44.05 z"
     fill="#1E1D28"
     id="path10" />
</svg>
