<?xml version="1.0" encoding="UTF-8" standalone="no"?>
<svg
   width="110"
   height="48"
   viewBox="0 0 110 48"
   version="1.1"
   id="svg1"
   xmlns="http://www.w3.org/2000/svg"
   xmlns:svg="http://www.w3.org/2000/svg"
   xmlns:rdf="http://www.w3.org/1999/02/22-rdf-syntax-ns#"
   xmlns:cc="http://creativecommons.org/ns#"
   xmlns:dc="http://purl.org/dc/elements/1.1/">
  <defs
     id="defs1" />
  <!-- Generator: Sketch 59.1 (86144) - https://sketch.com -->
  <title
     id="title1">logo-feedly-full--dark</title>
  <desc
     id="desc1">Created with Sketch.</desc>
  <g
     id="Page-1"
     stroke="none"
     stroke-width="1"
     fill="none"
     fill-rule="evenodd"
     style="fill:#1e1d28;fill-opacity:1"
     transform="translate(0,8)">
    <g
       id="exploration-13--dark--alt"
       transform="translate(-104,-56)"
       fill="#FFFFFF"
       style="fill:#1e1d28;fill-opacity:1">
      <g
         id="header"
         style="fill:#1e1d28;fill-opacity:1">
        <g
           id="top"
           transform="translate(104,56)"
           style="fill:#1e1d28;fill-opacity:1">
          <g
             id="logo-feedly-full--dark"
             style="fill:#1e1d28;fill-opacity:1">
            <path
               d="m 95.456194,6.6296537 v 5.5786923 h 4.006002 l 3.254384,10.023682 h 0.0548 l 3.14156,-10.023682 H 110 l -6.00503,16.47794 C 103.13211,31.03704 101.74169,32 99.046659,32 98.23942,32 97.43377,31.944164 96.62812,31.859197 v 0 -3.314523 c 0.750828,0.08497 1.528669,0.170743 2.30651,0.141612 1.028912,-0.11329 1.52867,-0.933019 1.52867,-1.839334 0,-0.312355 -0.054,-0.623901 -0.16606,-0.906315 v 0 L 95.456194,12.799879 V 26.846952 H 91.507397 V 6.6296537 Z m -4.811652,0 V 26.846952 h -3.754138 v -1.870084 h -0.05482 c -0.917678,1.58686 -2.502758,2.265788 -4.365128,2.265788 -3.941646,0 -6.046347,-3.110603 -6.396733,-6.738291 v 0 H 65.733754 c 0.112028,2.576524 1.306202,3.708609 3.53167,3.708609 1.582697,0 2.863473,-0.992091 3.112955,-1.895979 v 0 h 3.476053 c -1.113926,3.482839 -3.476053,4.925661 -6.728845,4.925661 -4.20225,0 -6.921914,-2.727038 -7.294547,-6.738291 v 0 H 51.665075 c 0.111233,2.576524 1.306201,3.708609 3.530081,3.708609 1.584285,0 2.863473,-0.992091 3.112954,-1.895979 v 0 h 3.475259 c -1.110748,3.482839 -3.475259,4.925661 -6.726461,4.925661 -4.533568,0 -7.341424,-3.171294 -7.341424,-7.70206 0,-4.388344 2.974707,-7.728763 7.341424,-7.728763 3.95992,0 6.280731,2.74484 6.859147,6.178317 0.614963,-3.600983 3.376737,-6.178317 7.209532,-6.178317 4.156168,0 6.506377,3.022399 6.932244,6.691356 0.302714,-3.576707 2.427278,-6.691356 6.329992,-6.691356 1.694725,0 3.36323,0.735572 4.252305,2.179203 v 0 h 0.05721 V 6.6296537 Z m -43.540844,0 c 0.694416,0 1.417435,0.084967 2.084043,0.1132894 v 0 3.0021685 c -0.472743,-0.056645 -0.9725,-0.086585 -1.446038,-0.086585 -1.083734,0 -1.50086,0.4539674 -1.50086,1.6710184 v 0 0.878802 h 2.725225 v 2.689005 h -2.725225 v 11.9496 H 42.293635 V 14.897351 h -2.363716 v -2.689005 h 2.363716 v -1.133703 c 0,-2.6040369 1.584286,-4.4449893 4.810063,-4.4449893 z m 4.561377,11.3265103 c 0.08342,-1.132894 0.72143,-3.115458 3.280599,-3.115458 1.917987,0 2.779254,1.07544 3.140763,3.115458 z m 14.068679,0 c 0.08422,-1.132894 0.723019,-3.115458 3.2806,-3.115458 1.917987,0 2.780842,1.07544 3.141557,3.115458 z M 14.109399,1.0906125 c 1.427764,-1.45415001 3.762877,-1.45415001 5.189847,0 v 0 L 32.346164,14.377029 c 1.426175,1.452531 1.426175,3.832417 0,5.286567 v 0 l -9.125136,9.292157 c -0.667402,0.679736 -1.589847,1.099716 -2.607636,1.099716 v 0 h -7.816551 c -0.927212,0 -1.773383,-0.34796 -2.422511,-0.922499 v 0 L 1.0696312,19.656313 c -1.42617494,-1.45334 -1.42617494,-3.831608 0,-5.285758 v 0 z M 83.442954,14.840706 c 2.558375,0 3.392628,2.265787 3.392628,4.644055 0,2.40659 -0.80565,4.728213 -3.392628,4.728213 -2.446347,0 -3.474464,-2.405781 -3.474464,-4.699891 0,-2.378267 0.890664,-4.672377 3.474464,-4.672377 z m -64.506807,10.505162 -1.301434,1.325485 c -0.09534,0.09711 -0.227235,0.156987 -0.372633,0.156987 h -1.114721 c -0.132686,0 -0.252659,-0.04936 -0.346413,-0.131901 l -1.326859,-1.35219 c -0.202605,-0.206348 -0.202605,-0.545407 0,-0.753374 l 1.859986,-1.89436 c 0.204193,-0.207967 0.537894,-0.207967 0.740499,0 l 1.861575,1.895169 c 0.204193,0.207158 0.204193,0.546217 0,0.754184 z m 0,-7.948868 -5.204148,5.300324 c -0.09614,0.09711 -0.227235,0.156987 -0.371838,0.156987 h -1.115515 c -0.131892,0 -0.253454,-0.04936 -0.345619,-0.131902 l -1.327654,-1.35138 c -0.203399,-0.207967 -0.203399,-0.547835 0,-0.754184 l 5.7627,-5.869198 c 0.204193,-0.207158 0.537894,-0.207158 0.741293,0 l 1.860781,1.895169 c 0.204193,0.207158 0.204193,0.547026 0,0.754184 z m 0,-7.9488685 -9.1060673,9.2743535 c -0.096932,0.09711 -0.2280291,0.156987 -0.3726329,0.156987 H 8.3427262 c -0.1318914,0 -0.2534539,-0.04936 -0.345619,-0.131901 L 6.668659,17.395381 c -0.2033988,-0.206348 -0.2033988,-0.546216 0,-0.754183 l 9.665414,-9.8432286 c 0.204193,-0.2079669 0.536305,-0.2079669 0.740499,0 l 1.861575,1.8959786 c 0.204193,0.2071577 0.204193,0.5470258 0,0.7541835 z"
               id="Fill-1"
               style="fill:#1e1d28;fill-opacity:1" />
          </g>
        </g>
      </g>
    </g>
  </g>
  <metadata
     id="metadata1">
    <rdf:RDF>
      <cc:Work
         rdf:about="">
        <dc:title>logo-feedly-full--dark</dc:title>
      </cc:Work>
    </rdf:RDF>
  </metadata>
</svg>
