<?xml version="1.0" encoding="UTF-8" standalone="no"?>
<!-- Created with Inkscape (http://www.inkscape.org/) -->

<svg
   version="1.1"
   id="svg2"
   width="1599.9885"
   height="660"
   viewBox="0 0 1599.9885 660"
   sodipodi:docname="index_ventures.svg"
   inkscape:version="1.2.2 (b0a8486541, 2022-12-01)"
   xmlns:inkscape="http://www.inkscape.org/namespaces/inkscape"
   xmlns:sodipodi="http://sodipodi.sourceforge.net/DTD/sodipodi-0.dtd"
   xmlns="http://www.w3.org/2000/svg"
   xmlns:svg="http://www.w3.org/2000/svg">
  <sodipodi:namedview
     id="namedview6"
     pagecolor="#ffffff"
     bordercolor="#000000"
     borderopacity="0.25"
     inkscape:showpageshadow="2"
     inkscape:pageopacity="0.0"
     inkscape:pagecheckerboard="true"
     inkscape:deskcolor="#d1d1d1"
     showgrid="false"
     inkscape:zoom="0.84813108"
     inkscape:cx="781.12926"
     inkscape:cy="211.05228"
     inkscape:window-width="3840"
     inkscape:window-height="2091"
     inkscape:window-x="0"
     inkscape:window-y="0"
     inkscape:window-maximized="1"
     inkscape:current-layer="svg2" />
  <defs
     id="defs6" />
  <g
     id="g8"
     transform="translate(0,121.39859)">
    <path
       style="fill:#1E1D28;stroke-width:0.666667"
       d="m 859.11273,422.31454 c -16.6168,-3.14315 -28.82946,-12.90048 -36.41973,-29.09762 -4.99,-10.64836 -7.35053,-23.02291 -7.35387,-38.55025 -0.007,-17.36744 2.3548,-29.50501 7.9668,-41 6.9842,-14.30567 17.48034,-23.06049 32.4968,-27.10559 7.96454,-2.14548 23.19014,-2.05254 30.539,0.18641 10.88507,3.31629 18.97314,9.34422 25.30387,18.85871 7.67373,11.5329 11.76033,25.42891 12.7924,43.49861 l 0.43187,7.56186 H 876.7274 828.585 l 0.35133,2.83334 c 0.19327,1.55833 0.54207,4.93333 0.77507,7.5 1.3566,14.9432 8.3852,30.13764 17.1738,37.12627 11.9222,9.48045 30.05307,11.18148 44.32387,4.15847 8.7928,-4.32718 15.30506,-12.92839 17.66313,-23.32906 l 0.8968,-3.95568 6.11553,-0.19169 c 4.9394,-0.15482 6.11547,-0.009 6.11547,0.75876 0,1.93125 -3.4048,12.61934 -5.08787,15.97124 -6.18693,12.32199 -16.1152,20.36844 -29.48833,23.89919 -6.83393,1.80427 -21.07647,2.24548 -28.31107,0.87703 z m 51.55394,-79.53039 c 0,-5.33258 -2.00047,-15.43605 -4.24727,-21.45081 -5.3488,-14.31898 -15.07007,-22.59132 -29.53173,-25.12996 -21.1494,-3.71262 -38.56787,9.5663 -45.20667,34.46329 -0.9288,3.48334 -1.88013,8.35834 -2.11393,10.83334 l -0.4252,4.5 h 40.7624 40.7624 z m 200.72093,79.49021 c -8.8507,-2.37959 -14.3215,-9.07797 -16.0143,-19.60769 -0.4388,-2.72996 -0.6984,-22.64878 -0.7016,-53.83333 l -0.01,-49.5 H 1083 1071.3333 V 294 288.66667 H 1083 1094.6667 V 274.4816 260.29654 l 6.1666,-2.25929 c 3.3917,-1.24261 6.5417,-2.39142 7,-2.55293 0.6524,-0.22986 0.8334,3.3418 0.8334,16.44436 v 16.73799 H 1126.3333 1144 V 294 v 5.33334 h -17.6667 -17.6666 l 0.011,48.5 c 0.011,52.32127 0.057,53.08531 3.5434,59.03427 5.2608,8.97666 17.7063,7.00811 22.3698,-3.53828 1.5316,-3.46387 2.7308,-10.10448 2.738,-15.16266 l 0.01,-3.5 h 5.3333 5.3334 l -0.011,5.16667 c -0.03,13.35983 -5.3925,25.02641 -13.7566,29.92811 -5.9688,3.49798 -15.3444,4.5293 -22.8442,2.51291 z m 94.9457,0.63891 c -18.5096,-2.87115 -28.0232,-14.63675 -30.3092,-37.4839 -0.3914,-3.91134 -0.6908,-24.06742 -0.6908,-46.5 V 299.33334 H 1166 1156.6667 V 294 288.66667 h 16.3051 16.3052 l 0.2291,49.16667 c 0.2094,44.93416 0.332,49.51101 1.4243,53.16667 3.9022,13.05948 10.7353,19.36307 22.9138,21.13809 16.6052,2.42024 30.395,-6.98739 36.545,-24.93173 3.2502,-9.48318 3.6026,-14.63324 3.6069,-52.70636 v -35.16667 h -10.3333 -10.3334 V 294 288.66667 H 1250.6667 1268 v 60.33334 60.33333 h 10 10 v 5.33333 5.33334 h -16.9835 -16.9835 l -0.1831,-10.83334 -0.1832,-10.83333 -2.3334,4.32964 c -2.8422,5.27384 -9.7068,12.37029 -14.6666,15.16205 -6.5937,3.71135 -11.4902,4.96138 -20.3334,5.19087 -4.4,0.11418 -8.9,0.068 -10,-0.10263 z m 220.2363,-0.57786 c -24.417,-4.63058 -39.7247,-23.86774 -43.2747,-54.38327 -1.1061,-9.50761 -0.4515,-28.35884 1.26,-36.28547 5.3088,-24.5876 18.1452,-39.62265 38.4838,-45.07518 4.1698,-1.11788 7.3483,-1.43272 14.9613,-1.48195 11.3025,-0.0731 15.3561,0.77242 24,5.00603 7.1919,3.52246 14.8645,11.01425 19.2963,18.84158 5.8574,10.34518 9.5908,24.66702 10.4776,40.19322 l 0.4293,7.5163 h -48.1318 -48.1318 l 0.3305,2.16667 c 0.1818,1.19167 0.5094,4.50855 0.728,7.37084 1.1604,15.18792 8.2418,30.78232 17.2204,37.9221 18.2102,14.48059 48.2979,9.75299 58.2012,-9.14498 2.0654,-3.94137 2.8194,-5.98542 4.2352,-11.48129 l 0.7298,-2.83334 h 6.0329 6.0329 l -0.4743,2.80759 c -1.8034,10.67409 -8.8686,23.24789 -16.4147,29.21271 -4.7038,3.71818 -11.6218,7.11823 -17.8044,8.75054 -6.779,1.78976 -21.0822,2.24538 -28.1875,0.8979 z M 1478,342.42067 c 0,-4.94614 -1.6335,-13.80552 -3.619,-19.62703 -4.4156,-12.94718 -12.2935,-21.17583 -24.1201,-25.1938 -4.3419,-1.47514 -6.4837,-1.79366 -12.2609,-1.82341 -10.3487,-0.0533 -17.1813,2.46964 -24.2946,8.97083 -8.8213,8.0622 -15.4676,22.59769 -16.805,36.75275 l -0.4252,4.5 H 1437.2376 1478 Z m 68.3333,80.4939 c -11.189,-1.74286 -19.2825,-6.96043 -24.626,-15.87534 l -2.374,-3.96078 v 8.46078 8.46078 H 1513.6667 1508 v -23 -23 h 5.6667 5.6666 v 2.70172 c 0,4.22294 1.9388,11.8359 4.3599,17.11996 5.1375,11.2125 15.1183,17.77657 28.3068,18.61648 14.4867,0.92258 26.7577,-5.29179 31.801,-16.10483 1.7303,-3.70971 1.8657,-4.60478 1.8657,-12.33333 0,-8.09357 -0.059,-8.43832 -2.0697,-11.98226 -2.5145,-4.43329 -6.6543,-7.46254 -12.8251,-9.38474 -2.4412,-0.76042 -11.3672,-2.54514 -19.8356,-3.96604 -21.181,-3.55391 -26.1953,-5.37934 -33.3535,-12.14204 -8.0042,-7.56193 -10.1947,-21.65872 -5.54,-35.65189 3.9221,-11.79057 14.4632,-21.09467 27.9572,-24.67627 5.9282,-1.57347 19.3741,-1.53613 25.2857,0.0702 8.7224,2.37013 14.742,6.69506 19.49,14.00304 l 2.5576,3.93669 v -7.77002 -7.77003 h 5.3334 H 1598 V 311 333.33334 h -5.3333 -5.3334 v -4.90901 c 0,-17.79058 -9.1904,-29.13948 -26.0487,-32.16669 -16.7621,-3.00991 -31.2193,4.05602 -36.3601,17.77082 -0.7348,1.96069 -1.1305,5.12601 -1.163,9.30488 -0.057,7.30317 1.3444,11.15812 5.3268,14.65474 5.0863,4.46583 9.3035,5.77484 28.9718,8.99269 20.0422,3.27904 26.377,5.53794 32.9416,11.74645 6.1438,5.81058 8.9625,13.35303 8.9867,24.04747 0.028,12.19514 -3.3988,21.43062 -10.6022,28.57645 -8.1125,8.04765 -16.9055,11.24039 -32.0529,11.63845 -4.95,0.13008 -9.9,0.0963 -11,-0.075 z M 725.06433,409.50001 c -2.06773,-5.775 -15.82873,-44.4 -30.57993,-85.83334 l -26.82033,-75.33333 -8.16537,-0.18719 -8.16537,-0.18719 v -5.31281 -5.31281 H 680.66667 710 V 242.66667 248 h -13.33333 c -7.33334,0 -13.33334,0.18856 -13.33334,0.41902 0,1.54403 53.67487,155.50287 54.0708,155.09442 0.27367,-0.28239 12.37174,-34.91912 26.88454,-76.97051 14.5128,-42.0514 26.567,-76.9264 26.78713,-77.50001 C 791.43087,248.1176 789.92693,248 777.738,248 H 764 v -5.33333 -5.33333 h 29.33333 29.33334 V 242.66667 248 h -7.88954 -7.88953 l -30.1926,84.83334 c -16.60587,46.65833 -30.46613,85.35833 -30.8006,86 -0.52907,1.01529 -1.676,1.16667 -8.8392,1.16667 h -8.23127 z m 210.269,5.18403 v -5.31597 l 10.16667,-0.18403 10.16667,-0.18403 0.17053,-54.83334 0.17053,-54.83333 h -10.3372 -10.3372 V 294 288.66667 h 16.98267 16.9826 l 0.18407,10.16667 0.184,10.16666 2.6116,-4.66666 c 5.0914,-9.09778 14.12273,-15.91624 24.3884,-18.41269 5.52033,-1.34247 19.28423,-1.16414 25.15283,0.32588 15.0194,3.81339 23.2124,15.19678 25.493,35.42014 0.3843,3.40836 0.6789,23.63761 0.682,46.83334 l 0.01,40.83333 h 9.3333 9.3334 v 5.33333 5.33334 h -27.3334 -27.3333 v -5.33334 -5.33333 h 11.031 11.0309 l -0.235,-44.16667 c -0.2132,-40.06266 -0.3458,-44.53834 -1.4271,-48.16667 -3.0843,-10.34932 -8.9203,-17.20506 -16.6884,-19.60438 -20.31967,-6.2761 -37.35273,4.346 -43.66167,27.22818 -2.3602,8.56047 -2.796,17.28014 -2.58406,51.70954 l 0.201,32.66667 10.16666,0.18403 10.16667,0.18403 v 5.31597 5.31597 h -27.33333 -27.33334 v -5.31597 z M 1296,414.66667 v -5.33333 h 10 10 v -55 -55 h -10 -10 V 294 288.66667 h 17 17 l 0.018,11.5 0.018,11.5 1.8719,-4.38661 c 4.952,-11.60416 13.856,-19.21976 25.3096,-21.64728 4.7943,-1.01612 9.3748,-1.2143 12.6991,-0.54944 l 2.0833,0.41666 v 6.08334 6.08333 l -6.0015,-0.21398 c -16.8607,-0.60115 -28.7132,9.42747 -34.1329,28.88065 -1.4449,5.18622 -1.4921,6.4045 -1.7118,44.16667 l -0.2261,38.83333 h 12.368 12.3679 v 5.33333 5.33334 h -29.3333 -29.3333 v -5.33334 z M 140,396.33334 v -23 h 116.33333 116.33334 v 23 23 H 256.33333 140 Z m 0,-93 V 280 h 163 163 v 23.33334 23.33333 H 303 140 Z M 140,210 V 186.66667 H 326.33333 512.66667 V 210 233.33334 H 326.33333 140 Z m 773.48193,-25.28996 c -19.79166,-4.86206 -33.37406,-21.51641 -37.82486,-46.37962 -1.47467,-8.23797 -2.00274,-25.05674 -1.05887,-33.72617 3.23153,-29.681609 17.27927,-49.86868 38.4748,-55.289583 6.56953,-1.680211 18.8792,-1.791764 25.7954,-0.233764 12.332,2.778019 21.73433,9.855415 28.6768,21.585765 l 1.77553,3 0.007,-31.166667 0.007,-31.166667 h -11 -11 V 6.0000001 0.66666668 h 18 18 V 86.333335 172 h 8.66666 8.66671 v 5.33334 5.33333 h -15.65057 -15.65054 l -0.1828,-11.03289 -0.1828,-11.03288 -3.33333,5.10319 c -6.84373,10.47747 -15.90253,17.05135 -26.51827,19.24409 -6.9196,1.42929 -19.3484,1.31397 -25.66646,-0.23814 z m 26.157,-10.3975 c 11.83167,-3.08174 20.7432,-11.99578 25.79827,-25.80553 3.729,-10.18699 4.63893,-15.65392 5.02233,-30.17367 0.3972,-15.04251 -0.40826,-21.822785 -3.74286,-31.507479 C 964.17393,79.440975 961.2086,74.609035 955.96087,69.299654 948.92067,62.176656 940.43127,58.689261 930.0962,58.67458 911.38613,58.648 897.40393,70.581561 891.0498,92.000001 886.81547,106.2729 886.9676,128.06032 891.40593,143 c 4.7504,15.99031 16.0112,28.12773 29.0168,31.2757 5.25734,1.27252 14.4048,1.29006 19.2162,0.0369 z m 119.02777,11.22572 c -17.2243,-2.89539 -29.9586,-12.52718 -37.6822,-28.50155 -5.5021,-11.37991 -7.6433,-22.59561 -7.6433,-40.03671 0,-17.794625 2.1393,-28.712365 7.9686,-40.666665 6.7268,-13.794775 17.3112,-22.722561 31.6902,-26.730099 5.8831,-1.639666 21.8807,-2.019237 28.3333,-0.672259 7.3236,1.528772 15.1827,5.654881 20.7192,10.877713 12.2379,11.544644 18.6992,28.291531 20.3294,52.69131 l 0.4565,6.83334 h -47.7735 c -41.8094,0 -47.8212,0.1246 -48.1564,0.99808 -0.6378,1.6619 1.0532,14.2619 2.8185,21.00192 2.4887,9.50172 6.142,16.48961 11.6558,22.29417 7.7348,8.14271 16.3163,11.68783 28.2839,11.6844 19.6808,-0.005 32.6013,-9.52472 36.8385,-27.14053 l 1.1615,-4.82864 6.1666,-0.005 c 3.3917,-0.003 6.1667,0.2473 6.1667,0.55532 0,2.26391 -3.1438,11.98515 -5.305,16.40398 -6.5231,13.3374 -17.2936,21.58982 -32.1669,24.64658 -4.7859,0.9836 -19.3829,1.34718 -23.8614,0.59434 z m 49.7174,-82.61415 c -0.6211,-7.654302 -3.1033,-17.170589 -6.1192,-23.459815 -1.866,-3.891207 -3.6853,-6.343094 -7.5294,-10.147614 -5.5364,-5.479448 -9.9676,-8.013197 -16.8522,-9.636241 -4.8621,-1.146236 -14.191,-1.294323 -18.5314,-0.294168 -12.6961,2.925514 -23.4715,14.322082 -28.6301,30.280396 -1.7132,5.299973 -2.3013,7.932694 -3.7604,16.833332 l -0.3551,2.16667 h 41.1218 41.1219 z M 658,177.33334 V 172 h 12.66667 12.66666 V 91.666668 11.333334 H 670.66667 658 V 6.0000001 0.66666668 h 32.33333 32.33334 V 6.0000001 11.333334 H 709.664 696.66127 l 0.1694,80.166667 0.16933,80.166669 12.83333,0.18106 12.83334,0.18107 v 5.31893 5.31894 H 690.33333 658 Z m 72.66667,0 V 172 h 10 10 V 117 62.000001 h -10 -10 v -5.333333 -5.333334 h 17 17 l 0.01,10.166667 0.01,10.166667 2.43546,-4.333334 c 3.27927,-5.83473 10.0796,-12.444958 15.57927,-15.143749 6.3138,-3.098304 11.6962,-4.168325 21.02473,-4.17973 20.92607,-0.02559 31.7806,7.876045 37.0766,26.990146 1.441,5.200887 1.48667,6.467407 1.8372,50.999999 l 0.35954,45.66667 9.5,0.18497 9.5,0.18497 v 5.31503 5.31503 H 834.66613 807.3328 v -5.31682 -5.31682 l 10.83333,-0.18318 10.83334,-0.18318 v -42.33333 c 0,-38.183465 -0.1158,-42.826312 -1.18147,-47.362185 -3.73567,-15.90058 -12.67967,-23.273917 -28.25913,-23.296575 -16.5268,-0.02403 -27.76874,10.567894 -33.339,31.411441 -0.99234,3.713214 -1.16574,9.130627 -1.379,43.080649 L 764.59687,172 h 10.03466 10.0346 v 5.33334 5.33333 h -27 -27 v -5.33333 z m 401.33333,0 V 172 l 5.8333,-0.0258 5.8334,-0.0258 20.6666,-28.13338 C 1175.7,128.34166 1185,115.34832 1185,114.94094 c 0,-0.4074 -8.55,-12.47701 -19,-26.821359 l -19,-26.080637 -5.5,-0.01946 -5.5,-0.01948 v -5.333333 -5.333334 h 22.3333 22.3334 v 5.31452 5.314521 l -9.0268,0.185479 -9.0268,0.18548 15.5268,21.461554 c 8.5397,11.803854 15.7206,21.403849 15.9576,21.333329 0.2368,-0.0705 7.518,-9.728215 16.1802,-21.461549 l 15.7494,-21.333334 -8.0135,-0.187186 L 1210,61.958962 v -5.312814 -5.312814 h 22.3333 22.3334 v 5.333334 5.333333 l -6.5,0.02157 -6.5,0.02157 -19,25.712675 c -10.45,14.141974 -19.2132,26.084574 -19.4738,26.539114 -0.2916,0.5085 7.5408,11.70304 20.3596,29.09908 l 20.8334,28.27264 5.807,0.19262 5.8071,0.19263 v 5.30737 5.30738 h -22.3333 -22.3334 V 177.33333 172 H 1220 c 4.7667,0 8.6667,-0.13416 8.6667,-0.29812 0,-0.5217 -34.0222,-46.69536 -34.5216,-46.8514 -0.2631,-0.0822 -8.2136,10.41776 -17.6676,23.33333 l -17.1892,23.48285 9.0225,0.18548 9.0225,0.18548 v 5.31452 5.31452 H 1154.6667 1132 v -5.33333 z M 140,117 V 94.000001 H 303 466 V 117 140 H 303 140 Z M 0,23.666667 V 0.66666668 h 116.33333 116.33334 v 23.00000032 23 H 116.33333 0 Z"
       id="path295" />
  </g>
</svg>
