<?xml version="1.0" encoding="UTF-8" standalone="no"?>
<svg
   width="61"
   height="43"
   viewBox="0 0 61 43"
   fill="none"
   version="1.1"
   id="svg12"
   sodipodi:docname="koto.svg"
   inkscape:version="1.2.2 (b0a8486541, 2022-12-01)"
   xmlns:inkscape="http://www.inkscape.org/namespaces/inkscape"
   xmlns:sodipodi="http://sodipodi.sourceforge.net/DTD/sodipodi-0.dtd"
   xmlns="http://www.w3.org/2000/svg"
   xmlns:svg="http://www.w3.org/2000/svg">
  <defs
     id="defs16" />
  <sodipodi:namedview
     id="namedview14"
     pagecolor="#ffffff"
     bordercolor="#000000"
     borderopacity="0.25"
     inkscape:showpageshadow="2"
     inkscape:pageopacity="0.0"
     inkscape:pagecheckerboard="true"
     inkscape:deskcolor="#d1d1d1"
     showgrid="false"
     inkscape:zoom="22.245902"
     inkscape:cx="30.5"
     inkscape:cy="15.014001"
     inkscape:window-width="3840"
     inkscape:window-height="2091"
     inkscape:window-x="0"
     inkscape:window-y="0"
     inkscape:window-maximized="1"
     inkscape:current-layer="svg12" />
  <path
     d="m 12.6723,10.168604 c 0.1664,-0.166284 0.392,-0.2596696 0.6272,-0.259649 h 3.4254 c 0.1757,6.12e-5 0.3475,0.052243 0.4935,0.149949 0.1461,0.09771 0.26,0.236551 0.3272,0.398985 0.0672,0.162434 0.0848,0.341166 0.0505,0.513604 -0.0342,0.17244 -0.1188,0.33085 -0.243,0.4552 l -4.847,4.85067 -4.84692,4.85069 c -0.08257,0.0825 -0.14808,0.1805 -0.19278,0.2883 -0.0447,0.1079 -0.0677,0.2235 -0.0677,0.3403 0,0.1167 0.023,0.2323 0.0677,0.3402 0.0447,0.1079 0.11021,0.2058 0.19278,0.2883 l 9.71632,9.7247 c 0.1216,0.1228 0.2043,0.2789 0.2375,0.4485 0.0333,0.1697 0.0157,0.3454 -0.0505,0.5051 -0.0662,0.1597 -0.1781,0.2962 -0.3217,0.3924 -0.1435,0.0963 -0.3123,0.1479 -0.485,0.1484 h -3.4535 c -0.2374,0 -0.465,-0.0944 -0.6328,-0.2624 l -6.93771,-6.9424 c -0.12575,-0.1255 -0.28584,-0.2109 -0.46005,-0.2454 -0.17421,-0.0345 -0.35474,-0.0166 -0.5188,0.0514 -0.16406,0.0681 -0.3043,0.1832 -0.40302,0.3309 -0.09872,0.1478 -0.15149,0.3215 -0.15165,0.4992 v 5.6712 c 1.2e-4,0.1178 -0.02296,0.2345 -0.06794,0.3434 -0.04497,0.1089 -0.11095,0.2078 -0.19417,0.2912 -0.08322,0.0833 -0.18203,0.1495 -0.29081,0.1946 -0.10877,0.0451 -0.22536,0.0683 -0.34311,0.0683 H 0.888563 c -0.235662,0 -0.461671,-0.0937 -0.628309,-0.2604 C 0.0936161,33.177053 0,32.950953 0,32.715153 V 10.805585 C 0,10.567784 0.0944029,10.339723 0.262441,10.171572 0.430479,10.003421 0.658388,9.908955 0.896029,9.908955 H 3.32371 c 0.11501,-2.457e-4 0.22893,0.022209 0.33525,0.06608 0.10633,0.04387 0.20296,0.108294 0.28436,0.189584 0.08141,0.08129 0.146,0.177848 0.19007,0.284148 0.04407,0.1063 0.06675,0.220253 0.06675,0.335337 v 5.756179 c -6e-5,0.17317 0.05128,0.34245 0.14751,0.48638 0.09622,0.14394 0.233,0.25603 0.39297,0.32206 0.15998,0.06604 0.33595,0.08304 0.5056,0.04886 0.16965,-0.03419 0.32533,-0.11802 0.4473,-0.24087 z"
     fill="#1E1D28"
     id="path2" />
  <path
     fill-rule="evenodd"
     clip-rule="evenodd"
     d="m 18.9712,14.906693 c 1.3539,-0.90507 2.9456,-1.38805 4.5738,-1.38787 2.1825,0.0027 4.2747,0.87153 5.8178,2.41585 1.5431,1.54433 2.4111,3.63806 2.4136,5.82198 0,1.6293 -0.4829,3.222 -1.3875,4.5767 -0.9046,1.3547 -2.1904,2.4106 -3.6947,3.0341 -1.5043,0.6234 -3.1595,0.7865 -4.7565,0.4686 -1.5969,-0.3179 -3.0638,-1.1026 -4.215,-2.2548 -1.1513,-1.1521 -1.9353,-2.6201 -2.2528,-4.2181 -0.3175,-1.598 -0.1544,-3.2544 0.4688,-4.75965 0.6233,-1.50524 1.6786,-2.79175 3.0325,-3.69681 z m 2.3323,10.20576 c 0.6635,0.4435 1.4436,0.6801 2.2415,0.6799 1.0693,-0.0012 2.0944,-0.4268 2.8505,-1.1834 0.7561,-0.7566 1.1814,-1.7824 1.1826,-2.8523 2e-4,-0.7985 -0.2363,-1.5791 -0.6795,-2.24306 -0.4431,-0.66398 -1.0732,-1.18152 -1.8103,-1.48716 -0.7372,-0.30564 -1.5484,-0.38566 -2.331,-0.22994 -0.7826,0.15573 -1.5014,0.54021 -2.0657,1.10481 -0.5642,0.5646 -0.9484,1.28395 -1.104,2.06705 -0.1556,0.7832 -0.0757,1.5949 0.2298,2.3325 0.3054,0.7377 0.8226,1.3681 1.4861,1.8116 z"
     fill="#1E1D28"
     id="path4" />
  <path
     fill-rule="evenodd"
     clip-rule="evenodd"
     d="m 52.7677,13.518823 c -1.6282,0 -3.2198,0.48314 -4.5736,1.38832 -1.3538,0.90518 -2.4089,2.19175 -3.032,3.69701 -0.6231,1.5053 -0.7861,3.1616 -0.4685,4.7596 0.3177,1.5979 1.1017,3.0658 2.253,4.2179 1.1513,1.152 2.6182,1.9366 4.2151,2.2545 1.5969,0.3178 3.2521,0.1547 4.7564,-0.4688 1.5042,-0.6235 2.7899,-1.6794 3.6945,-3.0341 0.9046,-1.3547 1.3874,-2.9474 1.3874,-4.5766 -0.0025,-2.18408 -0.8706,-4.27795 -2.4139,-5.8223 -1.5433,-1.54435 -3.6358,-2.41306 -5.8184,-2.41553 z m 0,12.27353 c -0.7979,0 -1.5778,-0.2367 -2.2412,-0.6803 -0.6634,-0.4436 -1.1805,-1.0741 -1.4858,-1.8118 -0.3053,-0.7377 -0.3851,-1.5494 -0.2294,-2.3324 0.1557,-0.7831 0.54,-1.50238 1.1043,-2.06688 0.5643,-0.56451 1.2831,-0.94889 2.0657,-1.10455 0.7826,-0.15565 1.5937,-0.07557 2.3308,0.2301 0.7371,0.30567 1.3671,0.82321 1.8102,1.48717 0.4432,0.66396 0.6796,1.44446 0.6794,2.24296 -10e-4,1.0702 -0.4263,2.0963 -1.1827,2.8529 -0.7563,0.7567 -1.7818,1.1821 -2.8513,1.1828 z"
     fill="#1E1D28"
     id="path6" />
  <path
     d="m 43.7962,26.406053 v 2.4227 c -2e-4,0.2343 -0.0933,0.4589 -0.2588,0.6245 -0.1656,0.1657 -0.39,0.2588 -0.6241,0.2591 h -9.5278 c -0.2305,0 -0.4515,-0.0916 -0.6145,-0.2547 -0.1629,-0.1631 -0.2545,-0.3843 -0.2545,-0.6149 v -2.4517 c 3e-4,-0.2334 0.0931,-0.4572 0.2582,-0.6222 0.165,-0.1649 0.3887,-0.2576 0.622,-0.2576 h 1.765 c 0.2374,0 0.4651,-0.0944 0.6329,-0.2624 0.1679,-0.1679 0.2622,-0.3958 0.2622,-0.6333 v -9.92085 c 0,-0.11758 0.0231,-0.23401 0.0681,-0.34262 0.045,-0.10862 0.111,-0.2073 0.1941,-0.2904 0.0831,-0.0831 0.1818,-0.14899 0.2904,-0.1939 0.1086,-0.04491 0.225,-0.06796 0.3425,-0.06784 h 2.3987 c 0.2401,0 0.4704,0.09545 0.6402,0.26535 0.1698,0.16991 0.2652,0.40034 0.2652,0.64062 v 9.90874 c -1e-4,0.1177 0.0229,0.2342 0.0679,0.343 0.0449,0.1088 0.1108,0.2076 0.1939,0.2909 0.0832,0.0833 0.1819,0.1493 0.2905,0.1944 0.1087,0.0451 0.2252,0.0683 0.3428,0.0683 h 1.751 c 0.2371,0 0.4646,0.0943 0.6322,0.2621 0.1677,0.1678 0.2619,0.3953 0.2619,0.6327 z"
     fill="#1E1D28"
     id="path8" />
  <path
     d="m 51.3117,34.740953 c 0.2339,0.9801 0.4688,1.9595 0.7047,2.9383 0.0157,0.0794 0.0155,0.161 -6e-4,0.2403 -0.016,0.0792 -0.0476,0.1545 -0.0929,0.2215 -0.0453,0.067 -0.1034,0.1243 -0.171,0.1686 -0.0676,0.0444 -0.1433,0.0748 -0.2227,0.0897 -8.7974,2.0128 -17.9352,2.0128 -26.7325,0 -0.0811,-0.0151 -0.1583,-0.0461 -0.2273,-0.0913 -0.0689,-0.0452 -0.1283,-0.1036 -0.1745,-0.1719 -0.0463,-0.0682 -0.0786,-0.145 -0.095,-0.2258 -0.0164,-0.0809 -0.0167,-0.1642 -7e-4,-0.2451 0.2346,-0.9776 0.4692,-1.9554 0.7038,-2.9336 0.0377,-0.1513 0.1336,-0.2815 0.2668,-0.3625 0.1331,-0.081 0.2928,-0.1061 0.4444,-0.07 8.1865,1.8745 16.6904,1.8745 24.8769,0 0.1541,-0.036 0.3161,-0.0099 0.451,0.0728 0.1349,0.0827 0.2317,0.2153 0.2696,0.369 z"
     fill="#1E1D28"
     id="path10" />
</svg>
