<?xml version="1.0" encoding="UTF-8" standalone="no"?>
<svg
   width="400"
   height="140"
   viewBox="0 0 400 140"
   fill="#1E1D28"
   version="1.1"
   id="svg4"
   sodipodi:docname="wordmark-light.svg"
   inkscape:version="1.2.2 (b0a8486541, 2022-12-01)"
   xmlns:inkscape="http://www.inkscape.org/namespaces/inkscape"
   xmlns:sodipodi="http://sodipodi.sourceforge.net/DTD/sodipodi-0.dtd"
   xmlns="http://www.w3.org/2000/svg"
   xmlns:svg="http://www.w3.org/2000/svg">
  <defs
     id="defs8" />
  <sodipodi:namedview
     id="namedview6"
     pagecolor="#ffffff"
     bordercolor="#000000"
     borderopacity="0.25"
     inkscape:showpageshadow="2"
     inkscape:pageopacity="0.0"
     inkscape:pagecheckerboard="true"
     inkscape:deskcolor="#d1d1d1"
     showgrid="false"
     inkscape:zoom="3.3925"
     inkscape:cx="200"
     inkscape:cy="50.110538"
     inkscape:window-width="3840"
     inkscape:window-height="2091"
     inkscape:window-x="0"
     inkscape:window-y="0"
     inkscape:window-maximized="1"
     inkscape:current-layer="svg4" />
  <path
     fill-rule="evenodd"
     clip-rule="evenodd"
     d="m 12.909022,37.488654 c -0.5283,0.5806 -0.4933,1.4714 0.0617,2.0265 l 68.5946,68.594596 c 0.5551,0.555 1.4459,0.59 2.0265,0.0617 10.0579,-9.152196 16.3713,-22.347796 16.3713,-37.017896 0,-27.6342 -22.4019,-50.0362 -50.0362,-50.0362 -14.6701,0 -27.8657,6.31337 -37.0179,16.3713 z m -8.5732602,13.0181 c -0.25348,0.5589 -0.12567,1.2142 0.30824,1.6481 L 68.925622,116.43645 c 0.4339,0.4339 1.0892,0.5617 1.6481,0.3083 1.485,-0.6736 2.9312,-1.4176 4.3344,-2.2277 0.8341,-0.4815 0.9618,-1.6195 0.2808,-2.3005 L 8.8638818,45.891554 c -0.68097,-0.681 -1.81894,-0.5532 -2.30045,0.2808 -0.81013,1.4032 -1.55411,2.8494 -2.22767,4.3344 z m -3.89976091,18.4066 c -0.300979,-0.301 -0.46112014,-0.7158 -0.4327856,-1.1405 0.1327026,-1.9891 0.3816396,-3.9463 0.7400796,-5.865 0.21492596,-1.1505 1.62072691,-1.5497 2.44830691,-0.7222 L 59.894822,117.88885 c 0.8275,0.8276 0.4283,2.2334 -0.7222,2.4483 -1.9187,0.3585 -3.8759,0.6074 -5.865,0.7401 -0.4247,0.0283 -0.8395,-0.1318 -1.1405,-0.4328 z m 3.47973091,13.9629 c -1.0331,-1.0331 -2.70028,-0.1429 -2.32193,1.2683 4.60966,17.193096 18.1490202,30.732496 35.3421202,35.342096 1.4112,0.3784 2.3014,-1.2888 1.2683,-2.3219 z M 201.58442,48.652354 c 3.587,0 6.494,-2.918 6.494,-6.5175 0,-3.5995 -2.907,-6.5175 -6.494,-6.5175 -3.586,0 -6.493,2.918 -6.493,6.5175 0,3.5995 2.907,6.5175 6.493,6.5175 z m -55.621,56.839596 V 35.621254 h 11.54 v 59.648 h 31.115 v 10.222696 z m 82.136,-28.510996 v 28.510996 h -11.166 V 55.972854 h 11.026 v 8.4876 l 0.14,-0.0937 c 1.121,-2.6573 2.928,-4.8769 5.42,-6.6589 2.491,-1.8132 5.668,-2.7198 9.531,-2.7198 3.426,0 6.54,0.766 9.344,2.2978 2.803,1.5006 5.045,3.7045 6.727,6.6119 1.682,2.9074 2.523,6.4713 2.523,10.6916 v 30.902596 h -11.166 V 76.136854 c 0,-3.7514 -0.997,-6.5963 -2.99,-8.5345 -1.962,-1.9695 -4.594,-2.9543 -7.896,-2.9543 -2.118,0 -4.049,0.4377 -5.793,1.313 -1.744,0.8754 -3.13,2.2196 -4.158,4.0328 -1.028,1.8132 -1.542,4.1422 -1.542,6.9871 z m 101.105,27.666896 c 2.554,1.0942 5.482,1.6413 8.783,1.6413 2.71,0 5.03,-0.3439 6.961,-1.0317 1.932,-0.719 3.52,-1.6725 4.766,-2.8605 1.277,-1.1879 2.289,-2.485297 3.037,-3.892096 h 0.187 v 6.987096 h 10.699 V 71.400654 c 0,-2.4072 -0.468,-4.6111 -1.402,-6.6119 -0.934,-2.0008 -2.289,-3.7358 -4.065,-5.2051 -1.744,-1.4694 -3.862,-2.5948 -6.354,-3.3763 -2.491,-0.8129 -5.295,-1.2193 -8.409,-1.2193 -4.267,0 -7.958,0.7347 -11.073,2.204 -3.084,1.4381 -5.497,3.3763 -7.242,5.8148 -1.744,2.4384 -2.694,5.1895 -2.85,8.2531 h 10.793 c 0.124,-1.438 0.623,-2.7198 1.495,-3.8452 0.872,-1.1254 2.056,-2.0008 3.551,-2.626 1.495,-0.6565 3.223,-0.9848 5.186,-0.9848 1.962,0 3.628,0.3283 4.999,0.9848 1.401,0.6565 2.476,1.5475 3.223,2.6729 0.748,1.1254 1.122,2.4384 1.122,3.939 v 0.3752 c 0,1.1254 -0.39,1.9538 -1.168,2.4853 -0.748,0.5314 -2.025,0.9222 -3.831,1.1723 -1.776,0.2501 -4.205,0.5471 -7.289,0.891 -2.523,0.2813 -4.952,0.7034 -7.288,1.2661 -2.336,0.5627 -4.423,1.3912 -6.261,2.4853 -1.806,1.0942 -3.239,2.5479 -4.298,4.3611 -1.059,1.8132 -1.588,4.1422 -1.588,6.987 0,3.2826 0.747,6.0336 2.242,8.253199 1.495,2.188397 3.52,3.845297 6.074,4.970697 z m 18.081,-8.300096 c -1.807,0.9691 -4.034,1.4537 -6.681,1.4537 -2.679,0 -4.813,-0.5627 -6.401,-1.6881 -1.589,-1.1567 -2.383,-2.7355 -2.383,-4.7362 0,-1.5631 0.436,-2.8293 1.308,-3.7984 0.904,-0.9691 2.087,-1.735 3.551,-2.2977 1.464,-0.5628 3.052,-0.9535 4.765,-1.1724 1.246,-0.1875 2.461,-0.3751 3.645,-0.5627 1.183,-0.2188 2.289,-0.422 3.317,-0.6096 1.028,-0.2188 1.9,-0.4377 2.616,-0.6565 0.748,-0.2188 1.293,-0.4533 1.635,-0.7034 v 5.5334 c 0,1.9382 -0.451,3.7202 -1.355,5.3458 -0.872,1.5944 -2.211,2.8917 -4.017,3.8921 z m 26.094,9.144196 V 55.972854 h 10.745 v 8.1594 h 0.141 c 0.903,-2.8136 2.32,-4.955 4.251,-6.4244 1.962,-1.5005 4.532,-2.2508 7.709,-2.2508 0.779,0 1.48,0.0312 2.102,0.0938 0.655,0.0312 1.2,0.0625 1.636,0.0937 v 10.082 c -0.405,-0.0625 -1.122,-0.1406 -2.149,-0.2344 -1.028,-0.0938 -2.118,-0.1407 -3.271,-0.1407 -1.838,0 -3.519,0.422 -5.046,1.2661 -1.526,0.8441 -2.741,2.1415 -3.644,3.8921 -0.872,1.7195 -1.308,3.8922 -1.308,6.5182 v 28.464096 z m -177.401,0 V 55.972854 h 11.166 v 49.519096 z m 84.238,-2.204 c 3.582,2.2196 7.834,3.3294 12.755,3.3294 3.8,0 7.257,-0.6878 10.372,-2.0633 3.146,-1.4068 5.762,-3.3294 7.849,-5.767796 2.087,-2.4697 3.442,-5.3146 4.065,-8.5346 h -10.512 c -0.468,1.4693 -1.231,2.7667 -2.29,3.8921 -1.027,1.0942 -2.32,1.9539 -3.877,2.5792 -1.558,0.6252 -3.364,0.9378 -5.42,0.9378 -2.772,0 -5.155,-0.6252 -7.148,-1.8757 -1.962,-1.2505 -3.457,-2.9855 -4.485,-5.2051 -0.933,-2.043 -1.443,-4.3564 -1.529,-6.9402 h 35.915 v -3.0012 c 0,-3.8139 -0.561,-7.284 -1.682,-10.4102 -1.121,-3.1575 -2.71,-5.8773 -4.766,-8.1594 -2.055,-2.3134 -4.531,-4.0953 -7.428,-5.3458 -2.866,-1.2505 -6.058,-1.8757 -9.578,-1.8757 -4.578,0 -8.627,1.1098 -12.147,3.3294 -3.52,2.2196 -6.276,5.2833 -8.27,9.191 -1.993,3.9078 -2.99,8.3782 -2.99,13.4114 0,5.0019 0.966,9.4568 2.897,13.3645 1.931,3.8765 4.688,6.924596 8.269,9.144196 z m 23.501,-32.778296 c -1.028,-2.1258 -2.492,-3.767 -4.392,-4.9237 -1.9,-1.1567 -4.142,-1.7351 -6.728,-1.7351 -2.554,0 -4.781,0.5784 -6.681,1.7351 -1.868,1.1567 -3.332,2.7979 -4.391,4.9237 -0.756,1.5396 -1.234,3.2903 -1.434,5.2521 h 25.059 c -0.2,-1.9618 -0.678,-3.7125 -1.433,-5.2521 z"
     id="path2" />
</svg>
