<svg width="105" height="30" viewBox="0 0 105 30" fill="none" xmlns="http://www.w3.org/2000/svg">
<mask id="mask0_1_31" style="mask-type:luminance" maskUnits="userSpaceOnUse" x="0" y="0" width="105" height="26">
<path d="M105 0H0V26H105V0Z" fill="white"/>
</mask>
<g mask="url(#mask0_1_31)">
<path d="M33.965 7.00101H31.085V23.701H44.418V21.17H33.965V7.00101ZM70.827 8.51701C68.581 8.51701 67.112 9.69501 66.393 11.709C65.816 9.63901 64.32 8.51701 62.015 8.51701C60 8.51701 58.618 9.46601 57.841 11.133V8.86301H54.731V17.143C54.731 19.933 53.003 21.515 50.929 21.515C48.799 21.515 47.591 20.566 47.591 17.919V8.86301H44.797V18.438C44.797 21.975 46.524 23.873 49.952 23.873C52.513 23.873 54.012 22.664 54.73 20.566V23.7H57.841V14.987C57.841 12.111 59.367 10.846 61.118 10.846C62.702 10.846 63.848 11.536 63.848 14.267V23.7H66.641V14.987C66.641 12.111 68.195 10.846 69.951 10.846C71.536 10.846 72.63 11.536 72.63 14.267V23.7H75.424V13.807C75.434 10.357 73.822 8.51701 70.827 8.51701ZM84.043 8.51701C79.674 8.51701 76.845 11.537 76.845 16.223C76.845 20.997 79.781 23.844 84.043 23.873C88.412 23.873 91.243 20.883 91.243 16.223C91.243 11.393 88.275 8.54601 84.043 8.51701ZM84.043 21.515C81.25 21.542 79.753 19.588 79.723 16.223C79.696 12.743 81.309 10.904 84.043 10.875C86.893 10.845 88.392 12.831 88.392 16.223C88.392 19.673 86.802 21.486 84.043 21.515ZM99.103 14.929C96.373 14.296 95.704 13.865 95.704 12.658C95.704 11.451 96.569 10.702 98.411 10.702C100.197 10.702 101.378 11.478 101.551 13.951L104.4 13.587C104.17 10.164 101.751 8.52601 98.584 8.52601C95.071 8.52601 92.941 10.251 92.941 12.723C92.941 15.225 94.179 16.541 98.067 17.383C100.859 17.957 101.637 18.446 101.637 19.797C101.637 21.091 100.657 21.639 98.871 21.639C97.086 21.639 95.413 20.977 95.273 18.589L92.307 18.964C92.539 22.237 95.129 23.853 98.727 23.853C102.212 23.853 104.429 22.271 104.429 19.51C104.429 16.97 103.393 15.878 99.103 14.929Z" fill="white"/>
<path d="M25.35 7.24302C25.3507 8.67664 24.9256 10.0782 24.1285 11.2698C23.3314 12.4614 22.1983 13.3894 20.873 13.936C19.5477 14.4841 18.0897 14.6275 16.683 14.3479C15.2763 14.0683 13.984 13.3783 12.969 12.365C11.9539 11.3521 11.2625 10.0606 10.9824 8.65429C10.7022 7.24794 10.8461 5.79008 11.3956 4.46556C11.9451 3.14105 12.8755 2.00955 14.069 1.21454C15.2624 0.419534 16.665 -0.0031744 18.099 1.79491e-05C20.022 1.79491e-05 21.867 0.763018 23.227 2.12102C23.9003 2.79327 24.4345 3.59167 24.7989 4.47056C25.1634 5.34944 25.35 6.29156 25.35 7.24302ZM5.73 20.419V5.54602H0V26H20.273V20.419H5.73Z" fill="white"/>
</g>
</svg>
