<svg width="119" height="30" viewBox="0 0 119 30" fill="none" xmlns="http://www.w3.org/2000/svg">
<path fill-rule="evenodd" clip-rule="evenodd" d="M28.1331 19.5901L24.9847 17.772C24.703 17.6096 24.5275 17.3072 24.5275 16.9805V13.3462C24.5275 12.592 24.1207 11.8882 23.4676 11.5112L20.3193 9.69305C20.0374 9.53066 19.8639 9.22826 19.8639 8.90345V5.26532C19.8639 4.51119 19.4571 3.80746 18.8039 3.43039L14.5956 1L10.3873 3.43039C9.73414 3.80746 9.3273 4.51119 9.3273 5.26532V8.90159C9.3273 9.22639 9.15189 9.52879 8.87195 9.69119L5.72366 11.5093C5.07049 11.8864 4.66365 12.5901 4.66365 13.3442V16.9805C4.66365 17.3053 4.48823 17.6077 4.2083 17.772L1.06 19.5901C0.406828 19.9672 0 20.671 0 21.425V26.2858L4.2083 28.7163C4.86147 29.0933 5.67328 29.0933 6.32645 28.7163L9.47474 26.8981C9.75653 26.7357 10.1055 26.7357 10.3873 26.8981L13.5356 28.7163C13.8622 28.9047 14.228 29 14.5956 29C14.9614 29 15.3291 28.9047 15.6557 28.7163L18.8039 26.8981C19.0857 26.7357 19.4347 26.7357 19.7165 26.8981L22.8648 28.7163C23.518 29.0933 24.3298 29.0933 24.9829 28.7163L29.1912 26.2858V21.427C29.1912 20.671 28.7863 19.969 28.1331 19.5901ZM18.6564 5.26532V8.90159C18.6564 9.65572 19.0633 10.3595 19.7165 10.7365L22.8648 12.5546C23.1465 12.7171 23.3201 13.0195 23.3201 13.3462V16.9823C23.3201 17.7365 23.727 18.4403 24.3802 18.8174L27.5284 20.6355C27.8102 20.7979 27.9856 21.1003 27.9856 21.425V24.8933L15.1985 17.5088V2.74159L18.2012 4.47573C18.4829 4.63813 18.6564 4.94053 18.6564 5.26532ZM1.66279 20.6355L4.81109 18.8174C5.46426 18.4403 5.87109 17.7365 5.87109 16.9823V13.3462C5.87109 13.0213 6.04651 12.7189 6.32831 12.5546L9.47661 10.7365C10.1298 10.3595 10.5366 9.65572 10.5366 8.90159V5.26532C10.5366 4.94053 10.712 4.63813 10.992 4.47573L13.9928 2.74159V17.5088L1.20744 24.8933V21.427C1.20557 21.1003 1.38099 20.7979 1.66279 20.6355ZM24.3802 27.6727C24.0983 27.8352 23.7494 27.8352 23.4676 27.6727L20.3193 25.8546C19.6661 25.4776 18.8543 25.4776 18.2012 25.8546L15.0529 27.6727C14.771 27.8352 14.422 27.8352 14.1403 27.6727L10.992 25.8546C10.3388 25.4776 9.52699 25.4776 8.87382 25.8546L5.72552 27.6727C5.44372 27.8352 5.09475 27.8352 4.81295 27.6727L1.81022 25.9386L14.5956 18.5541L27.381 25.9386L24.3802 27.6727ZM36.9078 23.6819H40.0356V16.7809H46.6718V13.936H40.0356V9.92837H47.1459V7.08358H36.9078V23.6819ZM76.2977 11.7296C77.199 11.7296 77.9959 11.9405 78.692 12.3587C79.3863 12.7786 79.9237 13.3592 80.3062 14.1022C80.6851 14.845 80.8754 15.7 80.8754 16.6631V23.6819H77.8877V16.805C77.8877 15.9203 77.6749 15.2557 77.2475 14.8133C76.8202 14.3709 76.195 14.1488 75.3739 14.1488C74.4575 14.1488 73.7465 14.4531 73.2408 15.0615C72.7332 15.672 72.4812 16.5213 72.4812 17.6114V23.6819H69.4935V11.92H72.4328V13.6746H72.6698C73.2875 12.3773 74.4967 11.7296 76.2977 11.7296ZM87.4371 8.26894H84.4531V11.9202H81.5138V14.3393H84.4531V21.0257C84.4531 21.8321 84.69 22.4761 85.1641 22.9577C85.6381 23.4393 86.2708 23.6801 87.0602 23.6801H90.3783V21.261H88.1015C87.6592 21.261 87.4371 21.0238 87.4371 20.5497V14.3393H90.6619V11.9202H87.4371V8.26894ZM92.5099 7.03694C92.9129 6.658 93.415 6.46761 94.0158 6.46761C94.6168 6.46761 95.1189 6.65614 95.5201 7.03694C96.3263 7.74441 96.3263 9.26947 95.5201 9.97693C94.7605 10.7367 93.2694 10.7367 92.5099 9.97693C91.7037 9.26947 91.7037 7.74441 92.5099 7.03694ZM95.5107 11.92H92.5229V23.6819H95.5107V11.92ZM51.4342 13.5814H51.1972V11.9201H48.258V23.6801H51.2458V16.8518C51.2458 15.1924 52.3357 14.386 53.8529 14.386H55.6071V11.8734H54.3735C52.8806 11.8734 51.8841 12.3251 51.4342 13.5814ZM114.777 11.9202L111.672 20.4098H111.435L108.328 11.9202H103.056V9.86495C103.056 9.39082 103.276 9.15376 103.72 9.15376H105.758V6.73455H102.679C101.887 6.73455 101.257 6.97536 100.783 7.45696C100.309 7.93855 100.072 8.58255 100.072 9.38895V11.9202H97.0838V14.3393H100.072V23.682H103.059V14.3393H106.051L109.994 24.4343L109.481 25.6663C109.395 25.8716 109.218 26.006 108.88 26.006H106.267V28.4252H109.742C110.963 28.4252 111.791 27.8204 112.15 26.9039L118 11.9202H114.777ZM68.2189 17.8017C68.2189 21.4884 65.6753 24.0139 62.0547 24.0139C58.4343 24.0139 55.8907 21.4697 55.8907 17.8017C55.8907 14.1337 58.3933 11.5894 62.0547 11.5894C65.7163 11.5894 68.2189 14.1151 68.2189 17.8017ZM62.0529 14.1971C60.2986 14.1971 58.8766 15.4123 58.8766 17.8017C58.8766 20.191 60.2986 21.4062 62.0529 21.4062C63.8072 21.4062 65.2292 20.191 65.2292 17.8017C65.2292 15.4123 63.8072 14.1971 62.0529 14.1971Z" fill="white"/>
</svg>
