<svg width="103" height="30" viewBox="0 0 103 30" fill="none" xmlns="http://www.w3.org/2000/svg">
<path d="M39.4688 13.3086C40.9808 13.3086 42.2887 14.1827 43.0443 15.4726L43.0745 15.5209L45.2761 14.2791L45.2522 14.2309C44.2443 12.109 41.9466 10.8371 39.439 10.8371C37.4532 10.8371 35.7614 11.5303 34.5616 12.7118C33.3678 13.8934 32.6719 15.557 32.6719 17.4981C32.6719 21.3319 35.4375 24.1108 39.3491 24.1108C41.8744 24.1108 44.1482 22.7967 45.18 20.8135L45.2043 20.7653L43.0023 19.4813L42.9784 19.5295C42.3365 20.7472 40.8489 21.6454 39.3789 21.6454C37.0633 21.6454 35.3655 19.8309 35.3655 17.4981C35.3655 15.1652 37.1113 13.3086 39.4688 13.3086Z" fill="white"/>
<path d="M73.1957 12.8022C72.2001 11.6388 70.8623 10.8431 69.0683 10.8431C65.4567 10.8431 62.7632 13.7848 62.7632 17.48C62.7632 21.1751 65.4328 24.1409 69.0923 24.1409C70.8682 24.1409 72.242 23.3633 73.2437 22.1819V23.8395H75.8834V6.03271H73.1957V12.8022ZM69.4163 21.6694C67.0106 21.6694 65.4509 19.7826 65.4509 17.474C65.4509 15.1652 67.0106 13.3026 69.4163 13.3026C71.8219 13.3026 73.3817 15.2074 73.3817 17.474C73.3817 19.7405 71.8219 21.6694 69.4163 21.6694Z" fill="white"/>
<path d="M88.8481 12.8022C87.8222 11.6388 86.4244 10.8371 84.6249 10.8371C80.9894 10.8371 78.3197 13.616 78.3197 17.4016C78.3197 21.1872 80.9651 24.1289 84.6249 24.1289C86.4244 24.1289 87.8222 23.3512 88.8481 22.1878V23.8215H91.4158V11.1445H88.8481V12.8022ZM84.9787 21.6695C82.5731 21.6695 81.0133 19.7827 81.0133 17.4981C81.0133 15.2134 82.5491 13.3026 84.9787 13.3026C87.4083 13.3026 88.9681 15.2134 88.9681 17.474C88.9681 19.7344 87.3604 21.6695 84.9787 21.6695Z" fill="white"/>
<path d="M101.028 20.9763L101.082 20.9461L102 23.0559L101.964 23.08C101.028 23.7913 99.7143 24.1409 98.4723 24.1409C97.0808 24.1409 96.0369 23.7009 95.3409 22.8631C94.6449 22.0251 94.3092 20.8135 94.3092 19.2764L94.333 6.68378H96.9725V11.1505H101.292V13.4533H96.9725V19.3246C96.9725 20.078 97.1047 20.6628 97.4044 21.0607C97.6986 21.4525 98.1663 21.6694 98.8505 21.6694C99.6484 21.6694 100.356 21.368 101.028 20.9763Z" fill="white"/>
<path d="M54.0466 10.8188C50.1109 10.8188 47.3695 13.8328 47.3695 17.4797C47.3695 21.1266 50.1109 24.1647 54.0466 24.1647C57.9822 24.1647 60.7236 21.1749 60.7236 17.4797C60.7236 13.7846 57.9822 10.8188 54.0466 10.8188ZM54.0466 21.645C51.803 21.645 50.0572 19.7824 50.0572 17.4736C50.0572 15.1649 51.803 13.3023 54.0466 13.3023C56.2902 13.3023 58.0359 15.2132 58.0359 17.4736C58.0359 19.7342 56.2902 21.645 54.0466 21.645Z" fill="white"/>
<path d="M9.13075 2.018L2.40567 6.65958C2.33967 6.70179 2.33967 6.79823 2.40567 6.84646L4.99732 8.63075C5.0333 8.65486 5.08728 8.65486 5.12329 8.63075L9.26273 5.77347C9.29273 5.75537 9.3107 5.71921 9.3107 5.68304V2.11445C9.3107 2.02403 9.20874 1.96978 9.13075 2.018Z" fill="white"/>
<path d="M23.6247 18.143L14.5419 24.4181C14.512 24.4422 14.494 24.4724 14.494 24.5085V28.0771C14.494 28.1676 14.596 28.2218 14.6679 28.1676L23.7507 21.8924C23.7807 21.8683 23.7987 21.8381 23.7987 21.8019V18.2334C23.7987 18.143 23.6967 18.0887 23.6247 18.143Z" fill="white"/>
<path d="M18.675 17.8898C18.711 17.914 18.765 17.914 18.801 17.8898L21.3866 16.1055C21.4527 16.0634 21.4527 15.9669 21.3866 15.9187L14.6615 11.2771C14.5896 11.2228 14.4876 11.2771 14.4876 11.3675V14.9361C14.4876 14.9722 14.5056 15.0084 14.5355 15.0265L18.675 17.8898Z" fill="white"/>
<path d="M0.173976 8.88385C0.101986 8.83562 0 8.88385 0 8.97427V12.5489C0 12.5851 0.0179975 12.6212 0.0479933 12.6393L9.13074 18.9145C9.20273 18.9688 9.30473 18.9145 9.30473 18.8241V15.2555C9.30473 15.2193 9.28673 15.1832 9.25671 15.165L0.173976 8.88385Z" fill="white"/>
</svg>
