<svg version="1.1" id="Layer_1" xmlns:x="ns_extend;" xmlns:i="ns_ai;" xmlns:graph="ns_graphs;" xmlns="http://www.w3.org/2000/svg" xmlns:xlink="http://www.w3.org/1999/xlink" x="0px" y="0px" viewBox="0 0 62 62" style="enable-background:new 0 0 62 62;" xml:space="preserve">
 <style type="text/css">
  .st0{fill:#625DF5;}
 </style>
 <metadata>
  <sfw xmlns="ns_sfw;">
   <slices>
   </slices>
   <sliceSourceBounds bottomLeftOrigin="true" height="62" width="62" x="63.8" y="64.2">
   </sliceSourceBounds>
  </sfw>
 </metadata>
 <path class="st0" d="M62,27.6H43.9l15.7-9.1l-3.4-6l-15.7,9.1l9.1-15.7l-6-3.5l-9.1,15.7V0h-6.9v18.1L18.5,2.4l-6,3.4l9.1,15.7
	L5.9,12.5l-3.4,6l15.7,9.1H0v6.9h18.1L2.4,43.5l3.4,6l15.7-9.1l-9.1,15.7l6,3.4l9.1-15.7V62h6.9V43.9l9.1,15.7l6-3.4l-9.1-15.7
	l15.7,9.1l3.4-6l-15.7-9.1H62L62,27.6L62,27.6z M31,40.4c-5.2,0-9.4-4.2-9.4-9.4c0-5.2,4.2-9.4,9.4-9.4c5.2,0,9.4,4.2,9.4,9.4
	C40.4,36.2,36.2,40.4,31,40.4z">
 </path>
</svg>