<?xml version="1.0" encoding="UTF-8" standalone="no"?>
<svg
   width="38"
   height="44"
   viewBox="0 0 38 44"
   fill="none"
   version="1.1"
   id="svg3"
   sodipodi:docname="mad-logo_z4oosu.svg"
   inkscape:export-filename="mad-logo_z4oosu.svg"
   inkscape:export-xdpi="96"
   inkscape:export-ydpi="96"
   inkscape:version="1.3 (0e150ed6c4, 2023-07-21)"
   xmlns:inkscape="http://www.inkscape.org/namespaces/inkscape"
   xmlns:sodipodi="http://sodipodi.sourceforge.net/DTD/sodipodi-0.dtd"
   xmlns="http://www.w3.org/2000/svg"
   xmlns:svg="http://www.w3.org/2000/svg">
  <sodipodi:namedview
     id="namedview3"
     pagecolor="#ffffff"
     bordercolor="#000000"
     borderopacity="0.25"
     inkscape:showpageshadow="2"
     inkscape:pageopacity="0.0"
     inkscape:pagecheckerboard="0"
     inkscape:deskcolor="#d1d1d1"
     inkscape:zoom="13.238636"
     inkscape:cx="7.8935622"
     inkscape:cy="16.429185"
     inkscape:window-width="3440"
     inkscape:window-height="1371"
     inkscape:window-x="0"
     inkscape:window-y="0"
     inkscape:window-maximized="1"
     inkscape:current-layer="svg3" />
  <g
     clip-path="url(#clip0_1_69)"
     id="g3"
     style="fill:#1e1d28;fill-opacity:1">
    <path
       fill-rule="evenodd"
       clip-rule="evenodd"
       d="m 13.2225,42.0221 3.8046,1.6988 1.259,-17.9529 -5.1042,-2.2792 -12.436424,12.9618 3.686354,1.6461 2.70045,-2.8939 6.42752,2.8701 z m -3.6843,-9.3687 4.9139,-5.2648 -0.5894,7.1958 z"
       fill="white"
       id="path1"
       style="fill:#1e1d28;fill-opacity:1" />
    <path
       fill-rule="evenodd"
       clip-rule="evenodd"
       d="M 20.369,0.100586 17.531,0.916691 16.3695,10.3505 16.321,10.3644 10.3514,2.98145 7.51349,3.79762 7.82038,21.3055 11.7498,20.1754 11.3778,10.152 l 0.0485,-0.0139 5.1412,6.1381 2.6923,-0.7743 1.141,-7.94474 0.0486,-0.01398 4.9805,8.69802 3.9051,-1.1231 z"
       fill="white"
       id="path2"
       style="fill:#1e1d28;fill-opacity:1" />
    <path
       fill-rule="evenodd"
       clip-rule="evenodd"
       d="m 21.9014,37.7847 9.2185,0.6465 2.8096,-2.5401 c 1.9088,-1.7312 3.7104,-3.3489 3.9289,-6.4825 0.2924,-4.1942 -3.1895,-7.6842 -7.9594,-8.0187 l -6.8212,-0.4784 z m 3.6349,-3.1362 0.7058,-10.124 2.7284,0.1914 c 2.9685,0.2571 4.7732,2.4623 4.5729,5.334 -0.2053,2.9448 -2.3068,4.9983 -5.0596,4.8053 z"
       fill="white"
       id="path3"
       style="fill:#1e1d28;fill-opacity:1" />
  </g>
  <defs
     id="defs3">
    <clipPath
       id="clip0_1_69">
      <rect
         width="38"
         height="44"
         fill="#ffffff"
         id="rect3"
         x="0"
         y="0" />
    </clipPath>
  </defs>
</svg>
