<svg version="1.1" id="Layer_1" xmlns:x="ns_extend;" xmlns:i="ns_ai;" xmlns:graph="ns_graphs;" xmlns="http://www.w3.org/2000/svg" xmlns:xlink="http://www.w3.org/1999/xlink" x="0px" y="0px" viewBox="0 0 298.5 72" style="enable-background:new 0 0 298.5 72;" xml:space="preserve">
 <style type="text/css">
  .st0{fill:#FFFFFF;}
 </style>
 <metadata>
  <sfw xmlns="ns_sfw;">
   <slices>
   </slices>
   <sliceSourceBounds bottomLeftOrigin="true" height="72" width="298.5" x="-326.4" y="-246.4">
   </sliceSourceBounds>
  </sfw>
 </metadata>
 <g>
  <g>
   <path class="st0" d="M48.5,23.3H25.2L48.5,0V23.3z M31.4,20.7h14.5V6.3L31.4,20.7z">
   </path>
  </g>
  <g>
   <path class="st0" d="M31.4,23.3H8.1V0L31.4,23.3z M10.7,20.7h14.5L10.7,6.3V20.7z">
   </path>
  </g>
  <g>
   <rect x="27" y="0.3" class="st0" width="2.6" height="71.7">
   </rect>
  </g>
  <g>
   <path class="st0" d="M48.5,71.2L27,49.7V18.9l21.5,21.5V71.2z M29.6,48.6L45.9,65V41.5L29.6,25.2V48.6z">
   </path>
  </g>
  <g>
   <path class="st0" d="M8.1,71.2V40.4l21.5-21.5v30.8L8.1,71.2z M10.7,41.5V65L27,48.6V25.2L10.7,41.5z">
   </path>
  </g>
  <g>
   <path class="st0" d="M10.7,50.3H0V20.7h31.4L10.7,41.5V50.3z M2.6,47.8h5.5v-7.3l17.1-17.1H2.6V47.8z">
   </path>
  </g>
  <g>
   <path class="st0" d="M56.6,50.3H45.9v-8.9L25.2,20.7h31.4V50.3z M48.5,47.8H54V23.3H31.4l17.1,17.1V47.8z">
   </path>
  </g>
  <path class="st0" d="M110.7,26.3c1.2-2.2,2.8-3.9,5-5.1c2.1-1.2,4.6-1.8,7.5-1.8c2.9,0,5.2,0.6,7.2,1.8c2,1.2,3.5,2.7,4.4,4.7
		c1,1.9,1.5,4.1,1.5,6.4v3.2H114c0.2,2.8,1.1,5,2.8,6.6c1.7,1.6,4,2.5,6.8,2.5c2.3,0,4.1-0.5,5.3-1.4c1.2-0.9,2.1-2.3,2.7-3.9h5.1
		c-0.7,2.6-2.1,4.9-4.2,6.8c-2.1,1.9-5.1,2.9-9,2.9c-2.9,0-5.5-0.6-7.7-1.8c-2.2-1.2-4-2.9-5.2-5.1c-1.2-2.2-1.8-4.8-1.8-7.8
		C108.9,31.1,109.5,28.5,110.7,26.3L110.7,26.3z M130.9,31.4c0-2.4-0.6-4.3-1.9-5.7c-1.3-1.4-3.2-2.1-5.9-2.1c-2.5,0-4.5,0.7-6.1,2
		c-1.6,1.3-2.6,3.3-2.9,5.7H130.9z">
  </path>
  <path class="st0" d="M142.9,20.2v4.4c0,0.3,0.1,0.4,0.4,0.4c0.1,0,0.2,0,0.3-0.1c0.1-0.1,0.1-0.2,0.2-0.4c0.9-2.9,3.2-4.4,6.9-4.4
		h2.4v4.8h-3.1c-2.4,0-4.2,0.6-5.4,1.7c-1.2,1.1-1.8,3-1.8,5.6V48h-4.8V20.2H142.9z">
  </path>
  <path class="st0" d="M181.4,42.1c-1.3,2.2-2.9,3.9-4.9,5c-2,1.1-4.2,1.7-6.5,1.7c-4.6,0-7.8-1.8-9.6-5.4c-0.1-0.3-0.3-0.4-0.5-0.4
		c-0.2,0-0.3,0.1-0.3,0.3v14.9h-4.8V20.2h4.8v4.8c0,0.2,0.1,0.3,0.3,0.3c0.2,0,0.4-0.1,0.5-0.4c1.9-3.6,5.1-5.4,9.6-5.4
		c2.3,0,4.5,0.6,6.5,1.7c2,1.1,3.7,2.8,4.9,5c1.3,2.2,1.9,4.9,1.9,8C183.3,37.2,182.7,39.9,181.4,42.1z M175.9,26.4
		c-1.8-1.8-4.1-2.8-7-2.8c-2.9,0-5.2,0.9-7,2.8c-1.8,1.8-2.4,4.4-2.4,7.7c0,3.3,0.6,5.8,2.4,7.7c1.8,1.8,4.1,2.8,7,2.8
		c2.9,0,5.2-0.9,7-2.8c1.8-1.8,2.7-4.4,2.7-7.7C178.5,30.8,177.6,28.2,175.9,26.4z">
  </path>
  <path class="st0" d="M190.3,9.5V48h-4.8V9.5H190.3z">
  </path>
  <path class="st0" d="M194.3,26.3c1.2-2.2,2.8-3.9,5-5.1c2.1-1.2,4.6-1.8,7.5-1.8c2.9,0,5.2,0.6,7.2,1.8c2,1.2,3.5,2.7,4.4,4.7
		c1,1.9,1.5,4.1,1.5,6.4v3.2h-22.2c0.2,2.8,1.1,5,2.8,6.6c1.7,1.6,4,2.5,6.8,2.5c2.3,0,4.1-0.5,5.3-1.4c1.2-0.9,2.1-2.3,2.7-3.9h5.1
		c-0.7,2.6-2.1,4.9-4.2,6.8c-2.1,1.9-5.1,2.9-9,2.9c-2.9,0-5.5-0.6-7.7-1.8c-2.2-1.2-4-2.9-5.2-5.1c-1.2-2.2-1.8-4.8-1.8-7.8
		C192.5,31.1,193.1,28.5,194.3,26.3L194.3,26.3z M214.5,31.4c0-2.4-0.6-4.3-1.9-5.7c-1.3-1.4-3.2-2.1-5.9-2.1c-2.5,0-4.5,0.7-6.1,2
		c-1.6,1.3-2.6,3.3-2.9,5.7H214.5z">
  </path>
  <path class="st0" d="M217.7,46.9l11-13.6l-9.1-12v-1.1h5.3l7.6,10.4l8.1-10.4h5.4v1.1l-10.4,12.8l9.6,12.8V48h-5.2l-8.2-11.2
		L223.1,48h-5.4L217.7,46.9L217.7,46.9z">
  </path>
  <path class="st0" d="M253.1,11.1v6h-5.6v-6H253.1z M252.8,48H248V20.2h4.8V48z">
  </path>
  <path class="st0" d="M254.3,20.2h5.2v-7.5h4.8v7.5h5.5l1.4,4.1h-6.9v13.3c0,1.8,0,3.2-0.1,4c-0.1,0.9-0.1,1.4-0.1,1.6
		c0,0.3,0.1,0.4,0.2,0.6c0.1,0.1,0.3,0.2,0.6,0.2c0.2,0,0.7,0,1.6-0.1c0.9-0.1,2.2-0.1,4-0.1h1.9V48h-3.8c-3.1,0-5.4-0.7-6.9-2.2
		c-1.5-1.5-2.3-3.8-2.3-6.8V24.3h-5.2L254.3,20.2L254.3,20.2z">
  </path>
  <path class="st0" d="M271.4,20.2h4.9l8,23.3c0.1,0.3,0.3,0.7,0.8,0.7c0.5,0,0.7-0.4,0.8-0.7l8-23.3h4.6v1.1l-10,30
		c-0.9,2.6-2.1,4.4-3.6,5.4c-1.6,1-3.4,1.5-6.4,1.5h-5.1v-4.3h3.9c1.3,0,2.3,0,3.1,0.1c0.8,0.1,1.3,0.1,1.5,0.1c0.6,0,1-0.3,1.2-0.8
		l1.5-4.1c0.2-0.4,0.2-0.7,0.1-1c-0.1-0.1-0.2-0.2-0.3-0.3c-0.1,0-0.3-0.1-0.5-0.1h-3.3L271.4,20.2L271.4,20.2z">
  </path>
  <path class="st0" d="M105.9,42.2c-1.3,2.2-2.9,3.9-4.9,5c-2,1.1-4.2,1.7-6.5,1.7c-4.6,0-7.8-1.8-9.6-5.4c-0.1-0.3-0.3-0.4-0.5-0.4
		c-0.2,0-0.3,0.1-0.3,0.3v14.9h-4.8V20.2h4.8V25c0,0.2,0.1,0.3,0.3,0.3c0.2,0,0.4-0.1,0.5-0.4c1.9-3.6,5.1-5.4,9.6-5.4
		c2.3,0,4.5,0.6,6.5,1.7c2,1.1,3.7,2.8,4.9,5c1.3,2.2,1.9,4.9,1.9,8C107.8,37.3,107.1,39.9,105.9,42.2z M100.3,26.5
		c-1.8-1.8-4.1-2.8-7-2.8c-2.9,0-5.2,0.9-7,2.8c-1.8,1.8-2.4,4.4-2.4,7.7c0,3.3,0.6,5.8,2.4,7.7c1.8,1.8,4.1,2.8,7,2.8
		c2.9,0,5.2-0.9,7-2.8c1.8-1.8,2.7-4.4,2.7-7.7C102.9,30.8,102.1,28.3,100.3,26.5z">
  </path>
 </g>
</svg>