<?xml version="1.0" encoding="UTF-8" standalone="no"?>
<svg
   width="145"
   height="62.560001"
   viewBox="0 0 145 62.560002"
   fill="none"
   version="1.1"
   id="svg4"
   sodipodi:docname="primer.svg"
   inkscape:version="1.2.2 (b0a8486541, 2022-12-01)"
   xmlns:inkscape="http://www.inkscape.org/namespaces/inkscape"
   xmlns:sodipodi="http://sodipodi.sourceforge.net/DTD/sodipodi-0.dtd"
   xmlns="http://www.w3.org/2000/svg"
   xmlns:svg="http://www.w3.org/2000/svg">
  <defs
     id="defs8" />
  <sodipodi:namedview
     id="namedview6"
     pagecolor="#ffffff"
     bordercolor="#000000"
     borderopacity="0.25"
     inkscape:showpageshadow="2"
     inkscape:pageopacity="0.0"
     inkscape:pagecheckerboard="true"
     inkscape:deskcolor="#d1d1d1"
     showgrid="false"
     inkscape:zoom="6.785"
     inkscape:cx="72.29182"
     inkscape:cy="23.139278"
     inkscape:window-width="3840"
     inkscape:window-height="2091"
     inkscape:window-x="0"
     inkscape:window-y="0"
     inkscape:window-maximized="1"
     inkscape:current-layer="svg4" />
  <path
     d="m 133.837,43.9038 c 0,0.5087 0.266,0.7752 0.773,0.7752 h 2.706 c 0.508,0 0.773,-0.2665 0.773,-0.7752 V 30.5803 c 0,-1.0902 0.701,-1.8169 1.789,-1.8169 h 4.349 c 0.507,0 0.773,-0.2665 0.773,-0.7752 v -2.7131 c 0,-0.5087 -0.266,-0.7752 -0.773,-0.7752 h -5.413 c -0.435,0 -0.7,0.2665 -0.7,0.7752 v 1.3323 c 0,1.1144 -0.653,1.7926 -1.788,1.7926 h -0.339 c -1.28,0 -2.126,0.8479 -2.126,2.2529 -0.024,-0.0242 -0.024,13.2509 -0.024,13.2509 z M 121.973,27.8187 c 2.706,0 4.881,1.7199 5.582,4.5542 h -11.164 c 0.653,-2.7132 2.707,-4.5542 5.582,-4.5542 z m 0,-3.7549 c -5.92,0 -9.955,4.2393 -9.955,10.4893 0,6.1288 3.914,10.5619 10.342,10.5619 4.228,0 7.514,-1.938 8.988,-5.4263 0.242,-0.5087 -0.048,-0.8236 -0.531,-0.8236 h -2.948 c -0.339,0 -0.629,0.1453 -0.846,0.4602 -0.918,1.3324 -2.561,2.0591 -4.543,2.0591 -3.334,0 -5.774,-2.1317 -6.282,-5.5959 h 14.957 c 0.435,0 0.701,-0.2664 0.701,-0.7025 V 34.65 c 0,-6.1288 -3.842,-10.5862 -9.883,-10.5862 z m -19.717,-0.0484 c -3.068,0 -5.581,1.3081 -6.693,3.6579 -1.039,-2.2529 -3.165,-3.6579 -5.968,-3.6579 -2.489,0 -4.422,1.0417 -5.509,2.7858 l -0.507,-1.6715 c -0.145,-0.5087 -0.46,-0.654 -0.943,-0.654 h -1.933 c -0.507,0 -0.773,0.2664 -0.773,0.7751 v 18.653 c 0,0.5087 0.266,0.7752 0.773,0.7752 h 2.706 c 0.508,0 0.774,-0.2665 0.774,-0.7752 V 32.5909 c 0,-2.8343 1.788,-4.748 4.421,-4.748 2.489,0 4.156,1.8653 4.156,4.6511 v 11.3855 c 0,0.5088 0.266,0.7752 0.774,0.7752 h 2.706 c 0.507,0 0.773,-0.2664 0.773,-0.7752 V 32.5667 c 0,-2.8343 1.788,-4.748 4.422,-4.748 2.489,0 4.156,1.8652 4.156,4.6511 v 11.3855 c 0,0.5087 0.266,0.7752 0.773,0.7752 h 2.706 c 0.508,0 0.773,-0.2665 0.773,-0.7752 V 31.6704 c 0,-4.3847 -2.827,-7.655 -7.587,-7.655 z m -26.772,0.4845 c 0.508,0 0.773,0.2665 0.773,0.7752 V 43.928 c 0,0.5087 -0.265,0.7752 -0.773,0.7752 h -2.706 c -0.508,0 -0.773,-0.2665 -0.773,-0.7752 V 25.2751 c 0,-0.5087 0.265,-0.7752 0.773,-0.7752 z m -1.353,-2.2287 c 1.474,0 2.585,-1.1385 2.585,-2.592 0,-1.4777 -1.111,-2.592 -2.585,-2.592 -1.474,0 -2.5854,1.1143 -2.5854,2.592 -0.0242,1.4777 1.1114,2.592 2.5854,2.592 z M 58.6186,43.9038 c 0,0.5087 0.2658,0.7752 0.7732,0.7752 h 2.7062 c 0.5074,0 0.7732,-0.2665 0.7732,-0.7752 V 30.5803 c 0,-1.0902 0.7007,-1.8169 1.788,-1.8169 h 4.3493 c 0.5074,0 0.7732,-0.2665 0.7732,-0.7752 v -2.7131 c 0,-0.5087 -0.2658,-0.7752 -0.7732,-0.7752 h -5.4124 c -0.435,0 -0.7007,0.2665 -0.7007,0.7752 v 1.3323 c 0,1.1144 -0.6524,1.7926 -1.7881,1.7926 H 60.769 c -1.2806,0 -2.1263,0.8479 -2.1263,2.2529 z M 41.7047,21.4234 h 5.1225 c 3.6002,0 5.799,2.0591 5.799,5.3536 0,3.2945 -2.1988,5.3536 -5.799,5.3536 H 41.7047 Z M 40.9315,44.679 c 0.5074,0 0.7732,-0.2665 0.7732,-0.7752 v -7.873 h 5.3883 c 6.1131,0 9.955,-3.5852 9.955,-9.2538 0,-5.717 -3.8419,-9.278 -9.955,-9.278 h -9.1335 c -0.5074,0 -0.7732,0.2665 -0.7732,0.7752 v 25.6296 c 0,0.5087 0.2658,0.7752 0.7732,0.7752 z M 13.5311,43.3224 c 0,4.1666 -2.8271,7.1462 -6.7414,7.1462 C 2.8754,50.4686 0,47.489 0,43.3224 v -4.1666 c 0,-4.1667 2.972,-7.1463 6.7897,-7.1463 h 2.5129 c 2.6821,0 4.2285,-1.5504 4.2285,-4.2393 v -6.1046 c 0,-2.6889 -1.5464,-4.1908 -4.2285,-4.1908 H 7.5629 C 2.9962,17.4748 0,14.4951 0,10.66765 0,6.88862 2.972,3.909 6.7897,3.909 c 3.7694,0 6.7414,2.97962 6.7414,7.14625 v 2.18025 c 0,2.6889 1.5464,4.2393 4.2284,4.2393 h 6.8622 c 1.5223,0 2.3921,0.8963 2.3921,2.3982 v 9.714 c 0,1.5262 -0.894,2.3983 -2.3921,2.3983 h -6.8622 c -2.682,0 -4.2284,1.5261 -4.2284,4.1908 z"
     fill="#1E1D28"
     id="path2" />
</svg>
