<?xml version="1.0" encoding="UTF-8" standalone="no"?>
<svg
   width="179.26801"
   height="67.306"
   viewBox="0 0 179.268 67.306"
   fill="none"
   version="1.1"
   id="svg15"
   sodipodi:docname="thrive.svg"
   inkscape:version="1.2.2 (b0a8486541, 2022-12-01)"
   xmlns:inkscape="http://www.inkscape.org/namespaces/inkscape"
   xmlns:sodipodi="http://sodipodi.sourceforge.net/DTD/sodipodi-0.dtd"
   xmlns="http://www.w3.org/2000/svg"
   xmlns:svg="http://www.w3.org/2000/svg">
  <sodipodi:namedview
     id="namedview17"
     pagecolor="#ffffff"
     bordercolor="#000000"
     borderopacity="0.25"
     inkscape:showpageshadow="2"
     inkscape:pageopacity="0.0"
     inkscape:pagecheckerboard="true"
     inkscape:deskcolor="#d1d1d1"
     showgrid="false"
     inkscape:zoom="6.785"
     inkscape:cx="89.535741"
     inkscape:cy="18.128224"
     inkscape:window-width="3840"
     inkscape:window-height="2091"
     inkscape:window-x="0"
     inkscape:window-y="0"
     inkscape:window-maximized="1"
     inkscape:current-layer="svg15" />
  <g
     clip-path="url(#clip0_3157_138905)"
     id="g8"
     transform="translate(-10.6885,8.5166069)">
    <path
       fill-rule="evenodd"
       clip-rule="evenodd"
       d="m 127.943,21.1012 c 0,4.5284 -3.751,8.2125 -8.363,8.2125 h -1.098 l 10.112,7.8831 h -2.312 l -0.014,-0.0112 -11.681,-9.247 h 4.993 c 3.843,0 6.97,-3.0672 6.97,-6.8374 0,-3.7698 -3.127,-6.8373 -6.97,-6.8373 h -8.977 v 22.9329 h -1.392 V 12.8892 h 10.369 c 4.612,0 8.363,3.6836 8.363,8.212 z M 54.459,14.3434 H 73.403 V 13.0818 H 54.459 Z m 8.7244,22.9594 h 1.4955 V 18.6312 h -1.4955 z m 18.4424,0.254 h -1.4955 v -24.475 h 1.4955 z M 98.6794,13.0818 V 24.2663 H 85.8675 v 1.3846 h 12.8119 v 11.9059 h 1.3966 v -24.475 z m 36.6306,24.115 h 1.392 V 12.8892 h -1.392 z m 9.152,-24.2223 10.343,21.9321 10.382,-22.0174 h 1.533 l -0.099,0.2144 -11.54,24.4513 h -0.553 l -0.04,-0.0854 -11.6,-24.5803 h 1.535 z m 28.082,-0.0853 v 24.3076 h 17.088 V 35.8222 H 173.936 V 14.2639 h 15.696 v -1.3747 z m 17.085,12.4834 H 178.381 V 23.998 h 11.248 z"
       fill="#1E1D28"
       id="path2" />
    <path
       d="m 118.483,29.3136 v -0.3251 h -0.945 l 0.746,0.5816 z m 10.111,7.8831 v 0.3252 h 0.946 l -0.746,-0.5817 z m -2.311,0 -0.203,0.2539 0.088,0.0713 h 0.115 z m -0.015,-0.0112 0.203,-0.2538 -0.001,-0.0013 z m -11.681,-9.247 v -0.3252 h -0.934 l 0.733,0.5802 z m -3.984,-13.6747 v -0.3251 h -0.324 v 0.3251 z m 0,22.9329 v 0.3252 h 0.325 v -0.3252 z m -1.392,0 h -0.325 v 0.3252 h 0.325 z m 0,-24.3076 V 12.564 h -0.325 v 0.3251 z m -35.8076,1.4542 v 0.325 h 0.3246 v -0.325 z m -18.944,0 h -0.3246 v 0.325 h 0.3246 z m 18.944,-1.2616 h 0.3246 v -0.3251 h -0.3246 z m -18.944,0 v -0.3251 h -0.3246 v 0.3251 z m 10.2199,24.221 v 0.3251 h 0.3246 v -0.3251 z m -1.4955,0 h -0.3245 v 0.3251 h 0.3245 z m 1.4955,-18.6716 h 0.3246 V 18.306 h -0.3246 z m -1.4955,0 V 18.306 h -0.3245 v 0.3251 z m 16.9469,18.9256 h -0.3246 v 0.325 h 0.3246 z m 1.4955,0 v 0.325 h 0.3245 v -0.325 z m -1.4955,-24.475 v -0.3251 h -0.3246 v 0.3251 z m 1.4955,0 h 0.3245 v -0.3251 h -0.3245 z m 17.0536,11.1845 v 0.325 h 0.3245 v -0.325 z m 0,-11.1845 v -0.3251 h -0.3246 v 0.3251 z M 85.8679,24.2662 V 23.941 h -0.3246 v 0.3252 z m 0,1.3846 h -0.3246 v 0.325 h 0.3246 z m 12.8119,0 h 0.3245 v -0.3252 h -0.3245 z m 0,11.9059 h -0.3246 v 0.325 h 0.3246 z m 1.3962,0 v 0.325 h 0.324 v -0.325 z m 0,-24.475 h 0.324 v -0.3251 h -0.324 z m 36.626,24.115 v 0.3252 h 0.324 v -0.3252 z m -1.392,0 h -0.325 v 0.3252 h 0.325 z m 1.392,-24.3076 h 0.324 V 12.564 h -0.324 z m -1.392,0 V 12.564 h -0.325 v 0.3251 z m 19.495,22.0174 -0.293,0.1388 0.293,0.6224 0.293,-0.6224 z m -10.342,-21.9321 0.294,-0.1388 -0.001,-6e-4 z m 20.724,-0.0853 V 12.564 h -0.205 l -0.088,0.1862 z m 1.534,0 0.294,0.1379 0.216,-0.463 h -0.51 z m -0.1,0.2144 0.293,0.1389 v -10e-4 z m -11.54,24.4513 v 0.325 h 0.207 l 0.087,-0.1861 z m -0.552,0 -0.294,0.1394 0.089,0.1856 h 0.205 z m -0.041,-0.0854 -0.293,0.1389 v 6e-4 z m -11.6,-24.5803 V 12.564 h -0.512 l 0.219,0.464 z m 1.535,0 0.293,-0.1394 -0.088,-0.1857 h -0.205 z m 28.121,24.3076 h -0.325 v 0.3252 h 0.325 z m 0,-24.3076 V 12.564 h -0.325 v 0.3251 z m 17.088,24.3076 v 0.3252 h 0.325 v -0.3252 z m 0,-1.3746 h 0.325 v -0.3252 h -0.325 z m -15.696,0 h -0.325 v 0.325 h 0.325 z m 0,-21.5583 v -0.3251 h -0.325 v 0.3251 z m 15.696,0 v 0.3251 h 0.325 v -0.3251 z m 0,-1.3747 h 0.325 V 12.564 h -0.325 z m -11.25,12.4834 h -0.326 v 0.3251 h 0.326 z m 11.247,0 v 0.3251 h 0.325 v -0.3251 z m -11.247,-1.3746 v -0.3252 h -0.326 v 0.3252 z m 11.247,0 h 0.325 v -0.3252 h -0.325 z m -70.048,5.6407 c 4.783,0 8.686,-3.8235 8.686,-8.5375 h -0.649 c 0,4.3429 -3.599,7.8874 -8.037,7.8874 z m -1.098,0 h 1.098 v -0.6501 h -1.098 z m 10.311,7.3016 -10.112,-7.8831 -0.398,0.513 10.111,7.8832 z m -2.511,0.5817 h 2.311 v -0.6503 h -2.311 z m -0.218,-0.0825 0.015,0.0112 0.406,-0.5077 -0.015,-0.0112 z m -11.679,-9.2459 11.682,9.247 0.402,-0.5101 -11.681,-9.2471 z m 5.195,-0.5802 h -4.994 v 0.6502 h 4.994 z m 6.645,-6.5122 c 0,3.5843 -2.975,6.5122 -6.645,6.5122 v 0.6502 c 4.015,0 7.294,-3.2062 7.294,-7.1624 z m -6.645,-6.5122 c 3.67,0 6.645,2.9283 6.645,6.5122 h 0.649 c 0,-3.9557 -3.279,-7.1624 -7.294,-7.1624 z m -8.978,0 h 8.978 v -0.6502 h -8.978 z m 0.325,22.6078 V 14.2638 h -0.649 v 22.9329 z m -1.717,0.3252 h 1.392 v -0.6503 h -1.392 z m -0.325,-24.6328 v 24.3076 h 0.649 V 12.8891 Z m 10.695,-0.3251 h -10.37 v 0.6501 h 10.37 z m 8.686,8.5371 c 0,-4.714 -3.903,-8.5371 -8.686,-8.5371 v 0.6501 c 4.438,0 8.037,3.5442 8.037,7.887 z M 73.4034,14.0182 h -18.944 v 0.6501 h 18.944 z m -0.3245,-0.9365 v 1.2616 h 0.6491 v -1.2616 z m -18.6195,0.325 h 18.944 v -0.6501 h -18.944 z m 0.3244,0.9366 v -1.2616 h -0.649 v 1.2616 z m 9.8955,22.6343 h -1.4955 v 0.6502 h 1.4955 z M 64.3548,18.6311 v 18.6716 h 0.6491 V 18.6311 Z m -1.171,0.325 h 1.4955 V 18.306 h -1.4955 z m 0.3245,18.3466 V 18.6311 h -0.649 v 18.6716 z m 16.6224,0.579 h 1.4955 v -0.6502 h -1.4955 z m -0.3246,-24.8 v 24.475 h 0.649 v -24.475 z m 1.8201,-0.3251 h -1.4955 v 0.6501 h 1.4955 z m 0.3245,24.8001 v -24.475 h -0.649 v 24.475 z M 99.0043,24.2662 V 13.0817 h -0.6491 v 11.1845 z m -13.1364,0.325 H 98.6798 V 23.941 H 85.8679 Z m 0.3244,1.0596 v -1.3846 h -0.649 v 1.3846 z M 98.6798,25.3256 H 85.8679 v 0.6502 h 12.8119 z m 0.3245,12.2311 V 25.6508 h -0.6491 v 11.9059 z m 1.0717,-0.3252 h -1.3962 v 0.6502 h 1.3962 z M 99.7514,13.0817 v 24.475 H 100.4 v -24.475 z m -1.0716,0.325 h 1.3962 v -0.6501 h -1.3962 z m 38.0222,23.4649 h -1.392 v 0.6503 h 1.392 z m -0.325,-23.9825 v 24.3076 h 0.649 V 12.8891 Z m -1.067,0.325 h 1.392 V 12.564 h -1.392 z m 0.324,23.9826 V 12.8891 h -0.649 v 24.3076 z m 19.464,-2.4291 -10.341,-21.932 -0.588,0.2777 10.343,21.932 z m 9.796,-22.0174 -10.382,22.0174 0.586,0.2777 10.383,-22.0174 z m 1.827,-0.1862 h -1.534 v 0.6501 h 1.534 z m 0.193,0.6774 0.101,-0.2144 -0.588,-0.2759 -0.1,0.2144 z m -11.539,24.4523 11.539,-24.4513 -0.586,-0.2779 -11.54,24.4513 z m -0.846,0.1861 h 0.552 v -0.6501 h -0.552 z m -0.334,-0.2709 0.04,0.0853 0.587,-0.2789 -0.041,-0.0853 z m -11.6,-24.5809 11.6,24.5803 0.586,-0.2778 -11.598,-24.5804 z m 1.828,-0.464 h -1.535 v 0.6501 h 1.535 z m 0.333,0.271 -0.04,-0.0853 -0.586,0.2788 0.04,0.0853 z m 28.112,24.3617 V 12.8891 h -0.649 v 24.3076 z m 16.764,-0.3251 h -17.088 v 0.6503 h 17.088 z m -0.325,-1.0495 v 1.3746 h 0.65 v -1.3746 z m -15.371,0.325 h 15.696 v -0.6502 h -15.696 z m -0.325,-21.8833 v 21.5583 h 0.649 V 14.2638 Z m 16.021,-0.3251 h -15.696 v 0.6502 h 15.696 z m -0.325,-1.0496 v 1.3747 h 0.65 v -1.3747 z m -16.763,0.325 h 17.088 V 12.564 h -17.088 z m 5.838,12.4835 h 11.247 v -0.6502 h -11.247 z m -0.326,-1.6997 v 1.3746 h 0.649 v -1.3746 z m 11.573,-0.3252 h -11.247 v 0.6502 h 11.247 z m 0.325,1.6998 v -1.3746 h -0.649 v 1.3746 z"
       fill="#1E1D28"
       id="path4" />
    <path
       fill-rule="evenodd"
       clip-rule="evenodd"
       d="m 26.5892,43.3756 c 4.9145,-0.5698 15.4145,-11.7819 15.4145,-20.3617 0,-1.5428 -0.2172,-3.0347 -0.622,-4.4457 l -7.2631,7.3335 c 0.0755,0.1358 0.1186,0.2924 0.1186,0.4592 0,0.5187 -0.4165,0.939 -0.9301,0.939 -0.1652,0 -0.3203,-0.0434 -0.4547,-0.1196 l -5.7376,5.7932 c 6e-4,0.0137 0.001,0.0275 0.001,0.0414 0,0.3726 -0.215,0.6946 -0.5266,0.8463 z M 25.792,43.3714 C 20.7617,42.7535 10.6885,31.5737 10.6885,23.0139 c 0,-1.476 0.1911,-2.9051 0.5504,-4.2617 L 21.819,29.4349 c -0.0457,0.111 -0.0709,0.2326 -0.0709,0.3604 0,0.5186 0.4163,0.9391 0.93,0.9391 0.1265,0 0.247,-0.0256 0.3568,-0.0717 l 2.2264,2.248 c -0.0037,0.0342 -0.0057,0.0689 -0.0057,0.1042 0,0.3766 0.2195,0.7013 0.5364,0.8511 z M 11.446,18.0369 22.2601,28.9561 c 0.1258,-0.0639 0.2677,-0.0999 0.418,-0.0999 0.5137,0 0.93,0.4204 0.93,0.9391 0,0.1517 -0.0357,0.2951 -0.099,0.4219 l 2.0677,2.0877 c 0.0646,-0.0564 0.137,-0.1041 0.2152,-0.141 V 21.2556 C 25.49,21.113 25.2764,20.8111 25.257,20.4571 l -3.7483,-3.7848 c -0.0994,0.0366 -0.2067,0.0565 -0.3187,0.0565 -0.5136,0 -0.93,-0.4204 -0.93,-0.939 0,-0.1131 0.0198,-0.2214 0.056,-0.3218 l -4.3989,-4.4415 c -2.0523,1.8593 -3.6097,4.2712 -4.4711,7.0104 z m 4.9633,-7.4378 4.3281,4.3701 c 0.1339,-0.0755 0.2883,-0.1185 0.4526,-0.1185 0.5137,0 0.93,0.4204 0.93,0.9391 0,0.1659 -0.0425,0.3217 -0.1173,0.457 l 3.4936,3.5275 c 0.0826,-0.0921 0.1829,-0.1675 0.2957,-0.2208 V 7.07538 c -3.5858,0.09485 -6.829,1.399 -9.3827,3.52372 z m 9.7671,-3.52923 h 0.0728 c -0.0121,-3e-5 -0.0242,-5e-5 -0.0364,-5e-5 -0.0122,0 -0.0243,2e-5 -0.0364,5e-5 z m 0.4128,0.00439 V 19.5583 c 0.1107,0.0539 0.2092,0.1294 0.2903,0.2209 l 9.1588,-9.2477 C 33.433,8.43798 30.1575,7.15854 26.5892,7.07426 Z m 9.9493,3.87644 -9.4248,9.5163 c -0.0225,0.3459 -0.2305,0.6408 -0.5245,0.784 v 10.9175 c 0.0889,0.0434 0.1699,0.1005 0.2404,0.1688 l 5.6026,-5.657 C 32.3965,26.5805 32.377,26.473 32.377,26.3609 c 0,-0.5186 0.4165,-0.9391 0.9301,-0.9391 0.111,0 0.2174,0.0197 0.3162,0.0557 l 7.539,-7.6121 c -0.9138,-2.7057 -2.5278,-5.084 -4.6238,-6.9147 z"
       fill="#1E1D28"
       id="path6" />
  </g>
  <defs
     id="defs13">
    <clipPath
       id="clip0_3157_138905">
      <rect
         width="200"
         height="50"
         fill="#1E1D28"
         id="rect10"
         x="0"
         y="0" />
    </clipPath>
  </defs>
</svg>
