<svg width="139" height="52" fill="none" xmlns="http://www.w3.org/2000/svg"><path d="M18.167 21.826h8.353v14.912H0V21.826h8.353v7.454h9.814v-7.454Zm28.216 7.647c0 2.524-1.653 4.017-3.913 4.017-2.21 0-3.887-1.493-3.887-4.017V17.467h-3.707v11.97c0 4.726 3.337 7.711 7.603 7.711 4.265 0 7.63-2.985 7.63-7.712v-11.97h-3.717l-.009 12.007Zm13.259-6.463c-1.426 0-3.016.611-3.823 2.01v-1.655h-3.474v13.349h3.583v-7.678c0-1.53.91-2.753 2.476-2.753 1.723 0 2.451 1.168 2.451 2.661v7.77h3.58v-8.415c.01-2.934-1.498-5.295-4.784-5.295l-.01.006Zm13.14 5.619-1.966-.407c-.75-.153-1.214-.541-1.214-1.193 0-.762.677-1.33 1.617-1.33 1.323 0 1.848.688 1.976 1.492h3.088c-.024-1.835-1.465-4.233-5.009-4.233-2.855 0-4.954 1.979-4.954 4.368 0 1.875 1.156 3.423 3.713 3.976l1.836.407c1.022.218 1.426.707 1.426 1.303 0 .707-.65 1.331-1.82 1.331-1.43 0-2.206-.82-2.388-1.771H65.9c.179 1.997 1.614 4.54 5.6 4.54 3.474 0 5.225-2.227 5.225-4.4-.003-1.945-1.323-3.545-3.935-4.09l-.009.007Zm19.172 1.386c0 4.044-2.506 7.035-6.247 7.035-1.82 0-3.18-.734-3.826-1.63v6.463H78.3V23.358h3.474v1.655c.606-1.03 2.072-1.954 4.065-1.954 3.887 0 6.123 2.985 6.123 6.95l-.01.006Zm-3.529.027c0-2.361-1.453-3.747-3.286-3.747-1.832 0-3.31 1.386-3.31 3.747 0 2.362 1.48 3.772 3.31 3.772s3.31-1.389 3.31-3.778l-.024.006Zm20.631-6.678h3.474v13.35h-3.58V35.09c-.607 1.07-1.993 1.951-3.826 1.951-3.741 0-6.247-2.988-6.247-7.035 0-3.977 2.236-6.95 6.114-6.95 1.993 0 3.434.932 4.065 1.954v-1.646Zm-.054 6.678c0-2.361-1.481-3.747-3.311-3.747-1.829 0-3.285 1.38-3.285 3.741 0 2.362 1.453 3.772 3.285 3.772 1.833 0 3.314-1.407 3.314-3.772l-.003.006Zm-15.37 6.672h3.58V17.467h-3.58v19.247Zm40.154-13.707c-1.265 0-2.731.43-3.583 1.462v-7.002h-3.58V36.71h3.58v-7.843c.082-1.469.971-2.607 2.479-2.607 1.723 0 2.451 1.172 2.448 2.665v7.79h3.583V28.3c-.003-2.934-1.562-5.292-4.927-5.292Zm-12.743 5.616-1.95-.407c-.75-.153-1.214-.541-1.214-1.193 0-.762.673-1.33 1.617-1.33 1.32 0 1.845.688 1.972 1.492h3.086c-.025-1.835-1.466-4.233-5.009-4.233-2.855 0-4.955 1.979-4.955 4.368 0 1.875 1.159 3.423 3.717 3.976l1.82.407c1.023.217 1.426.707 1.426 1.303 0 .707-.649 1.331-1.82 1.331-1.429 0-2.206-.82-2.388-1.771h-3.183c.176 1.997 1.611 4.54 5.598 4.54 3.474 0 5.225-2.228 5.225-4.4 0-1.939-1.32-3.539-3.929-4.083h-.013ZM18.167 10H8.353v7.455h9.814V10Z" fill="#1E1D28"/></svg>